{
	"asset":{
		"copyright":"Yara Gardaria",
		"generator":"Khronos glTF Blender I/O v4.1.63",
		"version":"2.0"
	},
	"extensionsUsed":[
		"KHR_materials_specular"
	],
	"scene":0,
	"scenes":[
		{
			"name":"Scene",
			"nodes":[
				0,
				1
			]
		}
	],
	"nodes":[
		{
			"mesh":0,
			"name":"Stick"
		},
		{
			"mesh":1,
			"name":"Sign",
			"translation":[
				0,
				2.305649995803833,
				-0.029999999329447746
			]
		}
	],
	"materials":[
		{
			"doubleSided":true,
			"extensions":{
				"KHR_materials_specular":{
					"specularFactor":0
				}
			},
			"name":"Crossing_road_sign",
			"normalTexture":{
				"index":0
			},
			"pbrMetallicRoughness":{
				"baseColorTexture":{
					"index":1
				},
				"metallicRoughnessTexture":{
					"index":2
				}
			}
		}
	],
	"meshes":[
		{
			"name":"Stick",
			"primitives":[
				{
					"attributes":{
						"POSITION":0,
						"NORMAL":1,
						"TEXCOORD_0":2
					},
					"indices":3,
					"material":0
				}
			]
		},
		{
			"name":"Sign",
			"primitives":[
				{
					"attributes":{
						"POSITION":4,
						"NORMAL":5,
						"TEXCOORD_0":6
					},
					"indices":7,
					"material":0
				}
			]
		}
	],
	"textures":[
		{
			"sampler":0,
			"source":0
		},
		{
			"sampler":0,
			"source":1
		},
		{
			"sampler":0,
			"source":2
		}
	],
	"images":[
		{
			"mimeType":"image/png",
			"name":"crossing_road_sing_normal",
			"uri":"crossing_road_sing_normal.png"
		},
		{
			"mimeType":"image/png",
			"name":"crossing_road_sing_base_color",
			"uri":"crossing_road_sing_base_color.png"
		},
		{
			"mimeType":"image/png",
			"name":"crossing_road_sing_metallic_roughness",
			"uri":"crossing_road_sing_metallic_roughness.png"
		}
	],
	"accessors":[
		{
			"bufferView":0,
			"componentType":5126,
			"count":30,
			"max":[
				0.02784530259668827,
				2.5924417972564697,
				0.027845297008752823
			],
			"min":[
				-0.027845291420817375,
				0,
				-0.027845297008752823
			],
			"type":"VEC3"
		},
		{
			"bufferView":1,
			"componentType":5126,
			"count":30,
			"type":"VEC3"
		},
		{
			"bufferView":2,
			"componentType":5126,
			"count":30,
			"type":"VEC2"
		},
		{
			"bufferView":3,
			"componentType":5123,
			"count":90,
			"type":"SCALAR"
		},
		{
			"bufferView":4,
			"componentType":5126,
			"count":82,
			"max":[
				0.30000001192092896,
				0.30000001192092896,
				1.311341701892843e-08
			],
			"min":[
				-0.30000001192092896,
				-0.30000001192092896,
				-0.014996202662587166
			],
			"type":"VEC3"
		},
		{
			"bufferView":5,
			"componentType":5126,
			"count":82,
			"type":"VEC3"
		},
		{
			"bufferView":6,
			"componentType":5126,
			"count":82,
			"type":"VEC2"
		},
		{
			"bufferView":7,
			"componentType":5123,
			"count":228,
			"type":"SCALAR"
		}
	],
	"bufferViews":[
		{
			"buffer":0,
			"byteLength":360,
			"byteOffset":0,
			"target":34962
		},
		{
			"buffer":0,
			"byteLength":360,
			"byteOffset":360,
			"target":34962
		},
		{
			"buffer":0,
			"byteLength":240,
			"byteOffset":720,
			"target":34962
		},
		{
			"buffer":0,
			"byteLength":180,
			"byteOffset":960,
			"target":34963
		},
		{
			"buffer":0,
			"byteLength":984,
			"byteOffset":1140,
			"target":34962
		},
		{
			"buffer":0,
			"byteLength":984,
			"byteOffset":2124,
			"target":34962
		},
		{
			"buffer":0,
			"byteLength":656,
			"byteOffset":3108,
			"target":34962
		},
		{
			"buffer":0,
			"byteLength":456,
			"byteOffset":3764,
			"target":34963
		}
	],
	"samplers":[
		{
			"magFilter":9729,
			"minFilter":9987
		}
	],
	"buffers":[
		{
			"byteLength":4220,
			"uri":"crossing_road_sign.bin"
		}
	]
}
