{
	"asset":{
		"copyright":"Yara Gardaria",
		"generator":"Khronos glTF Blender I/O v4.1.63",
		"version":"2.0"
	},
	"extensionsUsed":[
		"KHR_materials_specular"
	],
	"scene":0,
	"scenes":[
		{
			"name":"Scene",
			"nodes":[
				0
			]
		}
	],
	"nodes":[
		{
			"mesh":0,
			"name":"Beater"
		}
	],
	"materials":[
		{
			"doubleSided":true,
			"extensions":{
				"KHR_materials_specular":{
					"specularFactor":0
				}
			},
			"name":"beater",
			"normalTexture":{
				"index":0
			},
			"pbrMetallicRoughness":{
				"baseColorTexture":{
					"index":1
				},
				"metallicRoughnessTexture":{
					"index":2
				}
			}
		}
	],
	"meshes":[
		{
			"name":"Cube.014",
			"primitives":[
				{
					"attributes":{
						"POSITION":0,
						"NORMAL":1,
						"TEXCOORD_0":2
					},
					"indices":3,
					"material":0
				}
			]
		}
	],
	"textures":[
		{
			"sampler":0,
			"source":0
		},
		{
			"sampler":0,
			"source":1
		},
		{
			"sampler":0,
			"source":2
		}
	],
	"images":[
		{
			"mimeType":"image/png",
			"name":"beater_normal",
			"uri":"beater_normal.png"
		},
		{
			"mimeType":"image/png",
			"name":"beater_base_color",
			"uri":"beater_base_color.png"
		},
		{
			"mimeType":"image/png",
			"name":"beater_metallic_roughness",
			"uri":"beater_metallic_roughness.png"
		}
	],
	"accessors":[
		{
			"bufferView":0,
			"componentType":5126,
			"count":499,
			"max":[
				0.7805130481719971,
				1.7794733047485352,
				0.36866918206214905
			],
			"min":[
				-0.7805130481719971,
				4.395283758640289e-05,
				-0.36866918206214905
			],
			"type":"VEC3"
		},
		{
			"bufferView":1,
			"componentType":5126,
			"count":499,
			"type":"VEC3"
		},
		{
			"bufferView":2,
			"componentType":5126,
			"count":499,
			"type":"VEC2"
		},
		{
			"bufferView":3,
			"componentType":5123,
			"count":2160,
			"type":"SCALAR"
		}
	],
	"bufferViews":[
		{
			"buffer":0,
			"byteLength":5988,
			"byteOffset":0,
			"target":34962
		},
		{
			"buffer":0,
			"byteLength":5988,
			"byteOffset":5988,
			"target":34962
		},
		{
			"buffer":0,
			"byteLength":3992,
			"byteOffset":11976,
			"target":34962
		},
		{
			"buffer":0,
			"byteLength":4320,
			"byteOffset":15968,
			"target":34963
		}
	],
	"samplers":[
		{
			"magFilter":9729,
			"minFilter":9987
		}
	],
	"buffers":[
		{
			"byteLength":20288,
			"uri":"beater.bin"
		}
	]
}
