{
	"asset":{
		"copyright":"Yara Gardaria",
		"generator":"Khronos glTF Blender I/O v4.1.63",
		"version":"2.0"
	},
	"extensionsUsed":[
		"KHR_materials_specular"
	],
	"scene":0,
	"scenes":[
		{
			"name":"Scene",
			"nodes":[
				0,
				1,
				2,
				3,
				4,
				5
			]
		}
	],
	"nodes":[
		{
			"mesh":0,
			"name":"Base",
			"translation":[
				0,
				0,
				0.019058257341384888
			]
		},
		{
			"mesh":1,
			"name":"Seat",
			"translation":[
				0,
				-0.0023099780082702637,
				0.019058257341384888
			]
		},
		{
			"mesh":2,
			"name":"Wood",
			"translation":[
				0,
				0.47296473383903503,
				0
			]
		},
		{
			"mesh":3,
			"name":"Mechanism 2",
			"translation":[
				0,
				1.9292246103286743,
				0.019058257341384888
			]
		},
		{
			"mesh":4,
			"name":"Mechanism 3",
			"translation":[
				0,
				1.9292244911193848,
				0.019058257341384888
			]
		},
		{
			"mesh":5,
			"name":"Mechanism 1",
			"translation":[
				0,
				1.9292247295379639,
				0.019058257341384888
			]
		}
	],
	"materials":[
		{
			"extensions":{
				"KHR_materials_specular":{
					"specularFactor":0
				}
			},
			"name":"Swing",
			"normalTexture":{
				"index":0
			},
			"pbrMetallicRoughness":{
				"baseColorTexture":{
					"index":1
				},
				"metallicRoughnessTexture":{
					"index":2
				}
			}
		}
	],
	"meshes":[
		{
			"name":"Base",
			"primitives":[
				{
					"attributes":{
						"POSITION":0,
						"NORMAL":1,
						"TEXCOORD_0":2
					},
					"indices":3,
					"material":0
				},
				{
					"attributes":{
						"POSITION":4,
						"NORMAL":5,
						"TEXCOORD_0":6
					},
					"indices":7,
					"material":0
				}
			]
		},
		{
			"name":"Seat",
			"primitives":[
				{
					"attributes":{
						"POSITION":8,
						"NORMAL":9,
						"TEXCOORD_0":10
					},
					"indices":11,
					"material":0
				},
				{
					"attributes":{
						"POSITION":12,
						"NORMAL":13,
						"TEXCOORD_0":14
					},
					"indices":15,
					"material":0
				}
			]
		},
		{
			"name":"Wood",
			"primitives":[
				{
					"attributes":{
						"POSITION":16,
						"NORMAL":17,
						"TEXCOORD_0":18
					},
					"indices":19,
					"material":0
				}
			]
		},
		{
			"name":"Mechanism 2",
			"primitives":[
				{
					"attributes":{
						"POSITION":20,
						"NORMAL":21,
						"TEXCOORD_0":22
					},
					"indices":23,
					"material":0
				}
			]
		},
		{
			"name":"Mechanism 3",
			"primitives":[
				{
					"attributes":{
						"POSITION":24,
						"NORMAL":25,
						"TEXCOORD_0":26
					},
					"indices":27,
					"material":0
				}
			]
		},
		{
			"name":"Mechanism 1",
			"primitives":[
				{
					"attributes":{
						"POSITION":28,
						"NORMAL":29,
						"TEXCOORD_0":30
					},
					"indices":31,
					"material":0
				}
			]
		}
	],
	"textures":[
		{
			"sampler":0,
			"source":0
		},
		{
			"sampler":0,
			"source":1
		},
		{
			"sampler":0,
			"source":2
		}
	],
	"images":[
		{
			"mimeType":"image/png",
			"name":"swing_normal",
			"uri":"swing_normal.png"
		},
		{
			"mimeType":"image/png",
			"name":"swing_base_color",
			"uri":"swing_base_color.png"
		},
		{
			"mimeType":"image/png",
			"name":"swing_metallic_roughness",
			"uri":"swing_metallic_roughness.png"
		}
	],
	"accessors":[
		{
			"bufferView":0,
			"componentType":5126,
			"count":537,
			"max":[
				0.7335953712463379,
				2.033424139022827,
				0.6850506067276001
			],
			"min":[
				-0.7335953712463379,
				-2.3557106032967567e-05,
				-0.6850506067276001
			],
			"type":"VEC3"
		},
		{
			"bufferView":1,
			"componentType":5126,
			"count":537,
			"type":"VEC3"
		},
		{
			"bufferView":2,
			"componentType":5126,
			"count":537,
			"type":"VEC2"
		},
		{
			"bufferView":3,
			"componentType":5123,
			"count":2304,
			"type":"SCALAR"
		},
		{
			"bufferView":4,
			"componentType":5126,
			"count":632,
			"max":[
				0.6745275855064392,
				2.0177054405212402,
				0.11696223169565201
			],
			"min":[
				-0.6745275855064392,
				1.9042047262191772,
				-0.11696223169565201
			],
			"type":"VEC3"
		},
		{
			"bufferView":5,
			"componentType":5126,
			"count":632,
			"type":"VEC3"
		},
		{
			"bufferView":6,
			"componentType":5126,
			"count":632,
			"type":"VEC2"
		},
		{
			"bufferView":7,
			"componentType":5123,
			"count":2592,
			"type":"SCALAR"
		},
		{
			"bufferView":8,
			"componentType":5126,
			"count":305,
			"max":[
				0.2460990697145462,
				1.9206366539001465,
				0.020084796473383904
			],
			"min":[
				-0.2460990697145462,
				0.4141378104686737,
				-0.020084796473383904
			],
			"type":"VEC3"
		},
		{
			"bufferView":9,
			"componentType":5126,
			"count":305,
			"type":"VEC3"
		},
		{
			"bufferView":10,
			"componentType":5126,
			"count":305,
			"type":"VEC2"
		},
		{
			"bufferView":11,
			"componentType":5123,
			"count":1338,
			"type":"SCALAR"
		},
		{
			"bufferView":12,
			"componentType":5126,
			"count":1040,
			"max":[
				0.2482670545578003,
				1.956325888633728,
				0.20775848627090454
			],
			"min":[
				-0.2482670545578003,
				0.4447619318962097,
				-0.22542926669120789
			],
			"type":"VEC3"
		},
		{
			"bufferView":13,
			"componentType":5126,
			"count":1040,
			"type":"VEC3"
		},
		{
			"bufferView":14,
			"componentType":5126,
			"count":1040,
			"type":"VEC2"
		},
		{
			"bufferView":15,
			"componentType":5123,
			"count":4878,
			"type":"SCALAR"
		},
		{
			"bufferView":16,
			"componentType":5126,
			"count":276,
			"max":[
				0.23169368505477905,
				0.00659681111574173,
				0.20165935158729553
			],
			"min":[
				-0.23169372975826263,
				-0.00659681111574173,
				-0.20165935158729553
			],
			"type":"VEC3"
		},
		{
			"bufferView":17,
			"componentType":5126,
			"count":276,
			"type":"VEC3"
		},
		{
			"bufferView":18,
			"componentType":5126,
			"count":276,
			"type":"VEC2"
		},
		{
			"bufferView":19,
			"componentType":5123,
			"count":1044,
			"type":"SCALAR"
		},
		{
			"bufferView":20,
			"componentType":5126,
			"count":84,
			"max":[
				0.2719130516052246,
				0.01253027468919754,
				0.014468801207840443
			],
			"min":[
				-0.2719130218029022,
				-0.01253027468919754,
				-0.014468801207840443
			],
			"type":"VEC3"
		},
		{
			"bufferView":21,
			"componentType":5126,
			"count":84,
			"type":"VEC3"
		},
		{
			"bufferView":22,
			"componentType":5126,
			"count":84,
			"type":"VEC2"
		},
		{
			"bufferView":23,
			"componentType":5123,
			"count":180,
			"type":"SCALAR"
		},
		{
			"bufferView":24,
			"componentType":5126,
			"count":160,
			"max":[
				0.19115181267261505,
				0.02306540682911873,
				0.02306545525789261
			],
			"min":[
				-0.19115181267261505,
				-0.02306540682911873,
				-0.02306545525789261
			],
			"type":"VEC3"
		},
		{
			"bufferView":25,
			"componentType":5126,
			"count":160,
			"type":"VEC3"
		},
		{
			"bufferView":26,
			"componentType":5126,
			"count":160,
			"type":"VEC2"
		},
		{
			"bufferView":27,
			"componentType":5123,
			"count":600,
			"type":"SCALAR"
		},
		{
			"bufferView":28,
			"componentType":5126,
			"count":76,
			"max":[
				0.27506425976753235,
				0.010000001639127731,
				0.010000089183449745
			],
			"min":[
				-0.27506425976753235,
				-0.010000001639127731,
				-0.010000089183449745
			],
			"type":"VEC3"
		},
		{
			"bufferView":29,
			"componentType":5126,
			"count":76,
			"type":"VEC3"
		},
		{
			"bufferView":30,
			"componentType":5126,
			"count":76,
			"type":"VEC2"
		},
		{
			"bufferView":31,
			"componentType":5123,
			"count":204,
			"type":"SCALAR"
		}
	],
	"bufferViews":[
		{
			"buffer":0,
			"byteLength":6444,
			"byteOffset":0,
			"target":34962
		},
		{
			"buffer":0,
			"byteLength":6444,
			"byteOffset":6444,
			"target":34962
		},
		{
			"buffer":0,
			"byteLength":4296,
			"byteOffset":12888,
			"target":34962
		},
		{
			"buffer":0,
			"byteLength":4608,
			"byteOffset":17184,
			"target":34963
		},
		{
			"buffer":0,
			"byteLength":7584,
			"byteOffset":21792,
			"target":34962
		},
		{
			"buffer":0,
			"byteLength":7584,
			"byteOffset":29376,
			"target":34962
		},
		{
			"buffer":0,
			"byteLength":5056,
			"byteOffset":36960,
			"target":34962
		},
		{
			"buffer":0,
			"byteLength":5184,
			"byteOffset":42016,
			"target":34963
		},
		{
			"buffer":0,
			"byteLength":3660,
			"byteOffset":47200,
			"target":34962
		},
		{
			"buffer":0,
			"byteLength":3660,
			"byteOffset":50860,
			"target":34962
		},
		{
			"buffer":0,
			"byteLength":2440,
			"byteOffset":54520,
			"target":34962
		},
		{
			"buffer":0,
			"byteLength":2676,
			"byteOffset":56960,
			"target":34963
		},
		{
			"buffer":0,
			"byteLength":12480,
			"byteOffset":59636,
			"target":34962
		},
		{
			"buffer":0,
			"byteLength":12480,
			"byteOffset":72116,
			"target":34962
		},
		{
			"buffer":0,
			"byteLength":8320,
			"byteOffset":84596,
			"target":34962
		},
		{
			"buffer":0,
			"byteLength":9756,
			"byteOffset":92916,
			"target":34963
		},
		{
			"buffer":0,
			"byteLength":3312,
			"byteOffset":102672,
			"target":34962
		},
		{
			"buffer":0,
			"byteLength":3312,
			"byteOffset":105984,
			"target":34962
		},
		{
			"buffer":0,
			"byteLength":2208,
			"byteOffset":109296,
			"target":34962
		},
		{
			"buffer":0,
			"byteLength":2088,
			"byteOffset":111504,
			"target":34963
		},
		{
			"buffer":0,
			"byteLength":1008,
			"byteOffset":113592,
			"target":34962
		},
		{
			"buffer":0,
			"byteLength":1008,
			"byteOffset":114600,
			"target":34962
		},
		{
			"buffer":0,
			"byteLength":672,
			"byteOffset":115608,
			"target":34962
		},
		{
			"buffer":0,
			"byteLength":360,
			"byteOffset":116280,
			"target":34963
		},
		{
			"buffer":0,
			"byteLength":1920,
			"byteOffset":116640,
			"target":34962
		},
		{
			"buffer":0,
			"byteLength":1920,
			"byteOffset":118560,
			"target":34962
		},
		{
			"buffer":0,
			"byteLength":1280,
			"byteOffset":120480,
			"target":34962
		},
		{
			"buffer":0,
			"byteLength":1200,
			"byteOffset":121760,
			"target":34963
		},
		{
			"buffer":0,
			"byteLength":912,
			"byteOffset":122960,
			"target":34962
		},
		{
			"buffer":0,
			"byteLength":912,
			"byteOffset":123872,
			"target":34962
		},
		{
			"buffer":0,
			"byteLength":608,
			"byteOffset":124784,
			"target":34962
		},
		{
			"buffer":0,
			"byteLength":408,
			"byteOffset":125392,
			"target":34963
		}
	],
	"samplers":[
		{
			"magFilter":9729,
			"minFilter":9987
		}
	],
	"buffers":[
		{
			"byteLength":125800,
			"uri":"swing.bin"
		}
	]
}
