{
	"asset":{
		"copyright":"Irina Chernyshchuk",
		"generator":"Khronos glTF Blender I/O v4.1.63",
		"version":"2.0"
	},
	"extensionsUsed":[
		"KHR_materials_specular"
	],
	"scene":0,
	"scenes":[
		{
			"name":"Scene",
			"nodes":[
				0,
				1,
				2
			]
		}
	],
	"nodes":[
		{
			"mesh":0,
			"name":"Leg",
			"scale":[
				2.025341033935547,
				1,
				2.025341033935547
			]
		},
		{
			"mesh":1,
			"name":"Center",
			"scale":[
				1,
				0.928072452545166,
				1
			],
			"translation":[
				0,
				0.15000000596046448,
				0
			]
		},
		{
			"mesh":2,
			"name":"Base",
			"scale":[
				0.9985563158988953,
				1,
				0.9985563158988953
			],
			"translation":[
				0,
				0.10000000149011612,
				0
			]
		}
	],
	"materials":[
		{
			"extensions":{
				"KHR_materials_specular":{
					"specularFactor":0
				}
			},
			"name":"carousel",
			"normalTexture":{
				"index":0
			},
			"pbrMetallicRoughness":{
				"baseColorTexture":{
					"index":1
				},
				"metallicRoughnessTexture":{
					"index":2
				}
			}
		}
	],
	"meshes":[
		{
			"name":"Leg",
			"primitives":[
				{
					"attributes":{
						"POSITION":0,
						"NORMAL":1,
						"TEXCOORD_0":2
					},
					"indices":3,
					"material":0
				}
			]
		},
		{
			"name":"Center",
			"primitives":[
				{
					"attributes":{
						"POSITION":4,
						"NORMAL":5,
						"TEXCOORD_0":6
					},
					"indices":7,
					"material":0
				},
				{
					"attributes":{
						"POSITION":8,
						"NORMAL":9,
						"TEXCOORD_0":10
					},
					"indices":11,
					"material":0
				}
			]
		},
		{
			"name":"\u0426\u0438\u043b\u0438\u043d\u0434\u0440.008",
			"primitives":[
				{
					"attributes":{
						"POSITION":12,
						"NORMAL":13,
						"TEXCOORD_0":14
					},
					"indices":15,
					"material":0
				}
			]
		}
	],
	"textures":[
		{
			"sampler":0,
			"source":0
		},
		{
			"sampler":0,
			"source":1
		},
		{
			"sampler":0,
			"source":2
		}
	],
	"images":[
		{
			"mimeType":"image/png",
			"name":"carousel_normal",
			"uri":"carousel_normal.png"
		},
		{
			"mimeType":"image/png",
			"name":"carousel_base_color",
			"uri":"carousel_base_color.png"
		},
		{
			"mimeType":"image/png",
			"name":"carousel_metallic_roughness",
			"uri":"carousel_metallic_roughness.png"
		}
	],
	"accessors":[
		{
			"bufferView":0,
			"componentType":5126,
			"count":34,
			"max":[
				0.09065726399421692,
				0.10000000149011612,
				0.09065723419189453
			],
			"min":[
				-0.09065723419189453,
				0,
				-0.09065723419189453
			],
			"type":"VEC3"
		},
		{
			"bufferView":1,
			"componentType":5126,
			"count":34,
			"type":"VEC3"
		},
		{
			"bufferView":2,
			"componentType":5126,
			"count":34,
			"type":"VEC2"
		},
		{
			"bufferView":3,
			"componentType":5123,
			"count":96,
			"type":"SCALAR"
		},
		{
			"bufferView":4,
			"componentType":5126,
			"count":151,
			"max":[
				0.04636915773153305,
				0.6357262134552002,
				0.046369146555662155
			],
			"min":[
				-0.046369146555662155,
				-2.9802322387695312e-08,
				-0.04636916145682335
			],
			"type":"VEC3"
		},
		{
			"bufferView":5,
			"componentType":5126,
			"count":151,
			"type":"VEC3"
		},
		{
			"bufferView":6,
			"componentType":5126,
			"count":151,
			"type":"VEC2"
		},
		{
			"bufferView":7,
			"componentType":5123,
			"count":543,
			"type":"SCALAR"
		},
		{
			"bufferView":8,
			"componentType":5126,
			"count":701,
			"max":[
				0.8454487323760986,
				0.6120457649230957,
				0.9722724556922913
			],
			"min":[
				-0.8454485535621643,
				-0.0007734298706054688,
				-0.9722724556922913
			],
			"type":"VEC3"
		},
		{
			"bufferView":9,
			"componentType":5126,
			"count":701,
			"type":"VEC3"
		},
		{
			"bufferView":10,
			"componentType":5126,
			"count":701,
			"type":"VEC2"
		},
		{
			"bufferView":11,
			"componentType":5123,
			"count":3369,
			"type":"SCALAR"
		},
		{
			"bufferView":12,
			"componentType":5126,
			"count":165,
			"max":[
				1.0014457702636719,
				0.05000000447034836,
				1.0014457702636719
			],
			"min":[
				-1.0014457702636719,
				0,
				-1.0014457702636719
			],
			"type":"VEC3"
		},
		{
			"bufferView":13,
			"componentType":5126,
			"count":165,
			"type":"VEC3"
		},
		{
			"bufferView":14,
			"componentType":5126,
			"count":165,
			"type":"VEC2"
		},
		{
			"bufferView":15,
			"componentType":5123,
			"count":570,
			"type":"SCALAR"
		}
	],
	"bufferViews":[
		{
			"buffer":0,
			"byteLength":408,
			"byteOffset":0,
			"target":34962
		},
		{
			"buffer":0,
			"byteLength":408,
			"byteOffset":408,
			"target":34962
		},
		{
			"buffer":0,
			"byteLength":272,
			"byteOffset":816,
			"target":34962
		},
		{
			"buffer":0,
			"byteLength":192,
			"byteOffset":1088,
			"target":34963
		},
		{
			"buffer":0,
			"byteLength":1812,
			"byteOffset":1280,
			"target":34962
		},
		{
			"buffer":0,
			"byteLength":1812,
			"byteOffset":3092,
			"target":34962
		},
		{
			"buffer":0,
			"byteLength":1208,
			"byteOffset":4904,
			"target":34962
		},
		{
			"buffer":0,
			"byteLength":1086,
			"byteOffset":6112,
			"target":34963
		},
		{
			"buffer":0,
			"byteLength":8412,
			"byteOffset":7200,
			"target":34962
		},
		{
			"buffer":0,
			"byteLength":8412,
			"byteOffset":15612,
			"target":34962
		},
		{
			"buffer":0,
			"byteLength":5608,
			"byteOffset":24024,
			"target":34962
		},
		{
			"buffer":0,
			"byteLength":6738,
			"byteOffset":29632,
			"target":34963
		},
		{
			"buffer":0,
			"byteLength":1980,
			"byteOffset":36372,
			"target":34962
		},
		{
			"buffer":0,
			"byteLength":1980,
			"byteOffset":38352,
			"target":34962
		},
		{
			"buffer":0,
			"byteLength":1320,
			"byteOffset":40332,
			"target":34962
		},
		{
			"buffer":0,
			"byteLength":1140,
			"byteOffset":41652,
			"target":34963
		}
	],
	"samplers":[
		{
			"magFilter":9729,
			"minFilter":9987
		}
	],
	"buffers":[
		{
			"byteLength":42792,
			"uri":"carousel.bin"
		}
	]
}
