{
	"asset":{
		"copyright":"Irina Chernyshchuk",
		"generator":"Khronos glTF Blender I/O v3.6.28",
		"version":"2.0"
	},
	"extensionsUsed":[
		"KHR_materials_specular",
		"KHR_materials_ior"
	],
	"scene":0,
	"scenes":[
		{
			"name":"Scene",
			"nodes":[
				0,
				3,
				4,
				5,
				6,
				7,
				8,
				11,
				12
			]
		}
	],
	"nodes":[
		{
			"mesh":0,
			"name":"Base"
		},
		{
			"mesh":1,
			"name":"Handle 1",
			"translation":[
				-0.4000000059604645,
				-0.468500018119812,
				0.21923325955867767
			]
		},
		{
			"mesh":2,
			"name":"Handle 2",
			"translation":[
				-0.4000000059604645,
				-0.468500018119812,
				0.21923325955867767
			]
		},
		{
			"children":[
				1,
				2
			],
			"mesh":3,
			"name":"Door 1",
			"translation":[
				0.4000000059604645,
				0.468500018119812,
				-0.21923325955867767
			]
		},
		{
			"mesh":4,
			"name":"Delimiter"
		},
		{
			"mesh":5,
			"name":"Shelf"
		},
		{
			"mesh":6,
			"name":"Stub"
		},
		{
			"mesh":7,
			"name":"Legs"
		},
		{
			"mesh":8,
			"name":"Tabletop"
		},
		{
			"mesh":9,
			"name":"Handle 3",
			"translation":[
				0.4000000059604645,
				-0.468500018119812,
				0.21923325955867767
			]
		},
		{
			"mesh":10,
			"name":"Handle 4",
			"translation":[
				0.4000000059604645,
				-0.468500018119812,
				0.21923325955867767
			]
		},
		{
			"children":[
				9,
				10
			],
			"mesh":11,
			"name":"Door 2",
			"translation":[
				-0.4000000059604645,
				0.468500018119812,
				-0.21923325955867767
			]
		},
		{
			"mesh":12,
			"name":"Cut surface"
		}
	],
	"animations":[
		{
			"channels":[
				{
					"sampler":0,
					"target":{
						"node":11,
						"path":"rotation"
					}
				}
			],
			"name":"Door_2_Open",
			"samplers":[
				{
					"input":52,
					"interpolation":"LINEAR",
					"output":53
				}
			]
		}
	],
	"materials":[
		{
			"extensions":{
				"KHR_materials_specular":{
					"specularColorFactor":[
						0.370794099455666,
						0.370794099455666,
						0.370794099455666
					]
				},
				"KHR_materials_ior":{
					"ior":1.4500000476837158
				}
			},
			"name":"vintage_kitchen_1.002",
			"normalTexture":{
				"index":0
			},
			"pbrMetallicRoughness":{
				"baseColorTexture":{
					"index":1
				},
				"metallicRoughnessTexture":{
					"index":2
				}
			}
		}
	],
	"meshes":[
		{
			"name":"Base",
			"primitives":[
				{
					"attributes":{
						"POSITION":0,
						"NORMAL":1,
						"TEXCOORD_0":2
					},
					"indices":3,
					"material":0
				}
			]
		},
		{
			"name":"Handle 1",
			"primitives":[
				{
					"attributes":{
						"POSITION":4,
						"NORMAL":5,
						"TEXCOORD_0":6
					},
					"indices":7,
					"material":0
				}
			]
		},
		{
			"name":"Handle 2",
			"primitives":[
				{
					"attributes":{
						"POSITION":8,
						"NORMAL":9,
						"TEXCOORD_0":10
					},
					"indices":11,
					"material":0
				}
			]
		},
		{
			"name":"Door 1",
			"primitives":[
				{
					"attributes":{
						"POSITION":12,
						"NORMAL":13,
						"TEXCOORD_0":14
					},
					"indices":15,
					"material":0
				}
			]
		},
		{
			"name":"Delimiter",
			"primitives":[
				{
					"attributes":{
						"POSITION":16,
						"NORMAL":17,
						"TEXCOORD_0":18
					},
					"indices":19,
					"material":0
				}
			]
		},
		{
			"name":"Shelf",
			"primitives":[
				{
					"attributes":{
						"POSITION":20,
						"NORMAL":21,
						"TEXCOORD_0":22
					},
					"indices":23,
					"material":0
				}
			]
		},
		{
			"name":"Stub",
			"primitives":[
				{
					"attributes":{
						"POSITION":24,
						"NORMAL":25,
						"TEXCOORD_0":26
					},
					"indices":27,
					"material":0
				}
			]
		},
		{
			"name":"Legs",
			"primitives":[
				{
					"attributes":{
						"POSITION":28,
						"NORMAL":29,
						"TEXCOORD_0":30
					},
					"indices":31,
					"material":0
				}
			]
		},
		{
			"name":"Tabletop",
			"primitives":[
				{
					"attributes":{
						"POSITION":32,
						"NORMAL":33,
						"TEXCOORD_0":34
					},
					"indices":35,
					"material":0
				}
			]
		},
		{
			"name":"Handle 3",
			"primitives":[
				{
					"attributes":{
						"POSITION":36,
						"NORMAL":37,
						"TEXCOORD_0":38
					},
					"indices":39,
					"material":0
				}
			]
		},
		{
			"name":"Handle 4",
			"primitives":[
				{
					"attributes":{
						"POSITION":40,
						"NORMAL":41,
						"TEXCOORD_0":42
					},
					"indices":43,
					"material":0
				}
			]
		},
		{
			"name":"Door 2",
			"primitives":[
				{
					"attributes":{
						"POSITION":44,
						"NORMAL":45,
						"TEXCOORD_0":46
					},
					"indices":47,
					"material":0
				}
			]
		},
		{
			"name":"Cut surface",
			"primitives":[
				{
					"attributes":{
						"POSITION":48,
						"NORMAL":49,
						"TEXCOORD_0":50
					},
					"indices":51,
					"material":0
				}
			]
		}
	],
	"textures":[
		{
			"sampler":0,
			"source":0
		},
		{
			"sampler":0,
			"source":1
		},
		{
			"sampler":0,
			"source":2
		}
	],
	"images":[
		{
			"mimeType":"image/png",
			"name":"counter_normal",
			"uri":"counter_normal.png"
		},
		{
			"mimeType":"image/png",
			"name":"counter_base_color",
			"uri":"counter_base_color.png"
		},
		{
			"mimeType":"image/png",
			"name":"counter_metallic_roughness",
			"uri":"counter_metallic_roughness.png"
		}
	],
	"accessors":[
		{
			"bufferView":0,
			"componentType":5126,
			"count":40,
			"max":[
				0.4000000059604645,
				0.8400004506111145,
				0.23500001430511475
			],
			"min":[
				-0.4000000059604645,
				0.11500000953674316,
				-0.2192057967185974
			],
			"type":"VEC3"
		},
		{
			"bufferView":1,
			"componentType":5126,
			"count":40,
			"type":"VEC3"
		},
		{
			"bufferView":2,
			"componentType":5126,
			"count":40,
			"type":"VEC2"
		},
		{
			"bufferView":3,
			"componentType":5123,
			"count":66,
			"type":"SCALAR"
		},
		{
			"bufferView":4,
			"componentType":5126,
			"count":171,
			"max":[
				0.032787665724754333,
				0.7963066697120667,
				-0.24489127099514008
			],
			"min":[
				0.022533494979143143,
				0.6926152110099792,
				-0.2675013840198517
			],
			"type":"VEC3"
		},
		{
			"bufferView":5,
			"componentType":5126,
			"count":171,
			"type":"VEC3"
		},
		{
			"bufferView":6,
			"componentType":5126,
			"count":171,
			"type":"VEC2"
		},
		{
			"bufferView":7,
			"componentType":5123,
			"count":864,
			"type":"SCALAR"
		},
		{
			"bufferView":8,
			"componentType":5126,
			"count":90,
			"max":[
				0.03691570460796356,
				0.8005048036575317,
				-0.23851780593395233
			],
			"min":[
				0.018405452370643616,
				0.6884170770645142,
				-0.24654647707939148
			],
			"type":"VEC3"
		},
		{
			"bufferView":9,
			"componentType":5126,
			"count":90,
			"type":"VEC3"
		},
		{
			"bufferView":10,
			"componentType":5126,
			"count":90,
			"type":"VEC2"
		},
		{
			"bufferView":11,
			"componentType":5123,
			"count":384,
			"type":"SCALAR"
		},
		{
			"bufferView":12,
			"componentType":5126,
			"count":40,
			"max":[
				0,
				0.3684999942779541,
				0
			],
			"min":[
				-0.3983975052833557,
				-0.3684999942779541,
				-0.019533172249794006
			],
			"type":"VEC3"
		},
		{
			"bufferView":13,
			"componentType":5126,
			"count":40,
			"type":"VEC3"
		},
		{
			"bufferView":14,
			"componentType":5126,
			"count":40,
			"type":"VEC2"
		},
		{
			"bufferView":15,
			"componentType":5123,
			"count":132,
			"type":"SCALAR"
		},
		{
			"bufferView":16,
			"componentType":5126,
			"count":12,
			"max":[
				0.009999999776482582,
				0.8300000429153442,
				0.22500000894069672
			],
			"min":[
				-0.009999999776482582,
				0.1250000149011612,
				-0.20149245858192444
			],
			"type":"VEC3"
		},
		{
			"bufferView":17,
			"componentType":5126,
			"count":12,
			"type":"VEC3"
		},
		{
			"bufferView":18,
			"componentType":5126,
			"count":12,
			"type":"VEC2"
		},
		{
			"bufferView":19,
			"componentType":5123,
			"count":18,
			"type":"SCALAR"
		},
		{
			"bufferView":20,
			"componentType":5126,
			"count":24,
			"max":[
				0.385261207818985,
				0.4855000078678131,
				0.22475478053092957
			],
			"min":[
				-0.385261207818985,
				0.46549999713897705,
				-0.18530292809009552
			],
			"type":"VEC3"
		},
		{
			"bufferView":21,
			"componentType":5126,
			"count":24,
			"type":"VEC3"
		},
		{
			"bufferView":22,
			"componentType":5126,
			"count":24,
			"type":"VEC2"
		},
		{
			"bufferView":23,
			"componentType":5123,
			"count":36,
			"type":"SCALAR"
		},
		{
			"bufferView":24,
			"componentType":5126,
			"count":16,
			"max":[
				0.4000000059604645,
				0.11500003933906555,
				-0.15830285847187042
			],
			"min":[
				-0.4000000059604645,
				0,
				-0.18214230239391327
			],
			"type":"VEC3"
		},
		{
			"bufferView":25,
			"componentType":5126,
			"count":16,
			"type":"VEC3"
		},
		{
			"bufferView":26,
			"componentType":5126,
			"count":16,
			"type":"VEC2"
		},
		{
			"bufferView":27,
			"componentType":5123,
			"count":24,
			"type":"SCALAR"
		},
		{
			"bufferView":28,
			"componentType":5126,
			"count":136,
			"max":[
				0.35726654529571533,
				0.11500000208616257,
				0.155009463429451
			],
			"min":[
				-0.35726654529571533,
				0,
				-0.155009463429451
			],
			"type":"VEC3"
		},
		{
			"bufferView":29,
			"componentType":5126,
			"count":136,
			"type":"VEC3"
		},
		{
			"bufferView":30,
			"componentType":5126,
			"count":136,
			"type":"VEC2"
		},
		{
			"bufferView":31,
			"componentType":5123,
			"count":384,
			"type":"SCALAR"
		},
		{
			"bufferView":32,
			"componentType":5126,
			"count":38,
			"max":[
				0.4000000059604645,
				0.8700000047683716,
				0.30000001192092896
			],
			"min":[
				-0.4000000059604645,
				0.8399999737739563,
				-0.30000001192092896
			],
			"type":"VEC3"
		},
		{
			"bufferView":33,
			"componentType":5126,
			"count":38,
			"type":"VEC3"
		},
		{
			"bufferView":34,
			"componentType":5126,
			"count":38,
			"type":"VEC2"
		},
		{
			"bufferView":35,
			"componentType":5123,
			"count":90,
			"type":"SCALAR"
		},
		{
			"bufferView":36,
			"componentType":5126,
			"count":171,
			"max":[
				-0.02253349870443344,
				0.7963066697120667,
				-0.24489127099514008
			],
			"min":[
				-0.03278767317533493,
				0.6926152110099792,
				-0.2675013840198517
			],
			"type":"VEC3"
		},
		{
			"bufferView":37,
			"componentType":5126,
			"count":171,
			"type":"VEC3"
		},
		{
			"bufferView":38,
			"componentType":5126,
			"count":171,
			"type":"VEC2"
		},
		{
			"bufferView":39,
			"componentType":5123,
			"count":864,
			"type":"SCALAR"
		},
		{
			"bufferView":40,
			"componentType":5126,
			"count":90,
			"max":[
				-0.018405448645353317,
				0.8005048036575317,
				-0.23851780593395233
			],
			"min":[
				-0.03691570460796356,
				0.6884170770645142,
				-0.24654647707939148
			],
			"type":"VEC3"
		},
		{
			"bufferView":41,
			"componentType":5126,
			"count":90,
			"type":"VEC3"
		},
		{
			"bufferView":42,
			"componentType":5126,
			"count":90,
			"type":"VEC2"
		},
		{
			"bufferView":43,
			"componentType":5123,
			"count":384,
			"type":"SCALAR"
		},
		{
			"bufferView":44,
			"componentType":5126,
			"count":40,
			"max":[
				0.3983975052833557,
				0.3684999942779541,
				0
			],
			"min":[
				0,
				-0.3684999942779541,
				-0.019533172249794006
			],
			"type":"VEC3"
		},
		{
			"bufferView":45,
			"componentType":5126,
			"count":40,
			"type":"VEC3"
		},
		{
			"bufferView":46,
			"componentType":5126,
			"count":40,
			"type":"VEC2"
		},
		{
			"bufferView":47,
			"componentType":5123,
			"count":132,
			"type":"SCALAR"
		},
		{
			"bufferView":48,
			"componentType":5126,
			"count":4,
			"max":[
				0.4000000059604645,
				0.8700000047683716,
				0.30000001192092896
			],
			"min":[
				-0.4000000059604645,
				0.8700000047683716,
				-0.22392389178276062
			],
			"type":"VEC3"
		},
		{
			"bufferView":49,
			"componentType":5126,
			"count":4,
			"type":"VEC3"
		},
		{
			"bufferView":50,
			"componentType":5126,
			"count":4,
			"type":"VEC2"
		},
		{
			"bufferView":51,
			"componentType":5123,
			"count":6,
			"type":"SCALAR"
		},
		{
			"bufferView":52,
			"componentType":5126,
			"count":61,
			"max":[
				1
			],
			"min":[
				0
			],
			"type":"SCALAR"
		},
		{
			"bufferView":53,
			"componentType":5126,
			"count":61,
			"type":"VEC4"
		}
	],
	"bufferViews":[
		{
			"buffer":0,
			"byteLength":480,
			"byteOffset":0,
			"target":34962
		},
		{
			"buffer":0,
			"byteLength":480,
			"byteOffset":480,
			"target":34962
		},
		{
			"buffer":0,
			"byteLength":320,
			"byteOffset":960,
			"target":34962
		},
		{
			"buffer":0,
			"byteLength":132,
			"byteOffset":1280,
			"target":34963
		},
		{
			"buffer":0,
			"byteLength":2052,
			"byteOffset":1412,
			"target":34962
		},
		{
			"buffer":0,
			"byteLength":2052,
			"byteOffset":3464,
			"target":34962
		},
		{
			"buffer":0,
			"byteLength":1368,
			"byteOffset":5516,
			"target":34962
		},
		{
			"buffer":0,
			"byteLength":1728,
			"byteOffset":6884,
			"target":34963
		},
		{
			"buffer":0,
			"byteLength":1080,
			"byteOffset":8612,
			"target":34962
		},
		{
			"buffer":0,
			"byteLength":1080,
			"byteOffset":9692,
			"target":34962
		},
		{
			"buffer":0,
			"byteLength":720,
			"byteOffset":10772,
			"target":34962
		},
		{
			"buffer":0,
			"byteLength":768,
			"byteOffset":11492,
			"target":34963
		},
		{
			"buffer":0,
			"byteLength":480,
			"byteOffset":12260,
			"target":34962
		},
		{
			"buffer":0,
			"byteLength":480,
			"byteOffset":12740,
			"target":34962
		},
		{
			"buffer":0,
			"byteLength":320,
			"byteOffset":13220,
			"target":34962
		},
		{
			"buffer":0,
			"byteLength":264,
			"byteOffset":13540,
			"target":34963
		},
		{
			"buffer":0,
			"byteLength":144,
			"byteOffset":13804,
			"target":34962
		},
		{
			"buffer":0,
			"byteLength":144,
			"byteOffset":13948,
			"target":34962
		},
		{
			"buffer":0,
			"byteLength":96,
			"byteOffset":14092,
			"target":34962
		},
		{
			"buffer":0,
			"byteLength":36,
			"byteOffset":14188,
			"target":34963
		},
		{
			"buffer":0,
			"byteLength":288,
			"byteOffset":14224,
			"target":34962
		},
		{
			"buffer":0,
			"byteLength":288,
			"byteOffset":14512,
			"target":34962
		},
		{
			"buffer":0,
			"byteLength":192,
			"byteOffset":14800,
			"target":34962
		},
		{
			"buffer":0,
			"byteLength":72,
			"byteOffset":14992,
			"target":34963
		},
		{
			"buffer":0,
			"byteLength":192,
			"byteOffset":15064,
			"target":34962
		},
		{
			"buffer":0,
			"byteLength":192,
			"byteOffset":15256,
			"target":34962
		},
		{
			"buffer":0,
			"byteLength":128,
			"byteOffset":15448,
			"target":34962
		},
		{
			"buffer":0,
			"byteLength":48,
			"byteOffset":15576,
			"target":34963
		},
		{
			"buffer":0,
			"byteLength":1632,
			"byteOffset":15624,
			"target":34962
		},
		{
			"buffer":0,
			"byteLength":1632,
			"byteOffset":17256,
			"target":34962
		},
		{
			"buffer":0,
			"byteLength":1088,
			"byteOffset":18888,
			"target":34962
		},
		{
			"buffer":0,
			"byteLength":768,
			"byteOffset":19976,
			"target":34963
		},
		{
			"buffer":0,
			"byteLength":456,
			"byteOffset":20744,
			"target":34962
		},
		{
			"buffer":0,
			"byteLength":456,
			"byteOffset":21200,
			"target":34962
		},
		{
			"buffer":0,
			"byteLength":304,
			"byteOffset":21656,
			"target":34962
		},
		{
			"buffer":0,
			"byteLength":180,
			"byteOffset":21960,
			"target":34963
		},
		{
			"buffer":0,
			"byteLength":2052,
			"byteOffset":22140,
			"target":34962
		},
		{
			"buffer":0,
			"byteLength":2052,
			"byteOffset":24192,
			"target":34962
		},
		{
			"buffer":0,
			"byteLength":1368,
			"byteOffset":26244,
			"target":34962
		},
		{
			"buffer":0,
			"byteLength":1728,
			"byteOffset":27612,
			"target":34963
		},
		{
			"buffer":0,
			"byteLength":1080,
			"byteOffset":29340,
			"target":34962
		},
		{
			"buffer":0,
			"byteLength":1080,
			"byteOffset":30420,
			"target":34962
		},
		{
			"buffer":0,
			"byteLength":720,
			"byteOffset":31500,
			"target":34962
		},
		{
			"buffer":0,
			"byteLength":768,
			"byteOffset":32220,
			"target":34963
		},
		{
			"buffer":0,
			"byteLength":480,
			"byteOffset":32988,
			"target":34962
		},
		{
			"buffer":0,
			"byteLength":480,
			"byteOffset":33468,
			"target":34962
		},
		{
			"buffer":0,
			"byteLength":320,
			"byteOffset":33948,
			"target":34962
		},
		{
			"buffer":0,
			"byteLength":264,
			"byteOffset":34268,
			"target":34963
		},
		{
			"buffer":0,
			"byteLength":48,
			"byteOffset":34532,
			"target":34962
		},
		{
			"buffer":0,
			"byteLength":48,
			"byteOffset":34580,
			"target":34962
		},
		{
			"buffer":0,
			"byteLength":32,
			"byteOffset":34628,
			"target":34962
		},
		{
			"buffer":0,
			"byteLength":12,
			"byteOffset":34660,
			"target":34963
		},
		{
			"buffer":0,
			"byteLength":244,
			"byteOffset":34672
		},
		{
			"buffer":0,
			"byteLength":976,
			"byteOffset":34916
		}
	],
	"samplers":[
		{
			"magFilter":9729,
			"minFilter":9987
		}
	],
	"buffers":[
		{
			"byteLength":35892,
			"uri":"vintage_counter_1.bin"
		}
	]
}
