{
	"asset":{
		"copyright":"Yara Gardaria",
		"generator":"Khronos glTF Blender I/O v4.0.44",
		"version":"2.0"
	},
	"extensionsUsed":[
		"KHR_materials_specular",
		"KHR_materials_ior"
	],
	"scene":0,
	"scenes":[
		{
			"name":"Scene",
			"nodes":[
				0,
				1,
				2,
				3,
				4,
				5
			]
		}
	],
	"nodes":[
		{
			"mesh":0,
			"name":"Tabletop",
			"translation":[
				0,
				0.3807758092880249,
				0
			]
		},
		{
			"mesh":1,
			"name":"Leg",
			"translation":[
				0,
				0.6570372581481934,
				0
			]
		},
		{
			"mesh":2,
			"name":"Handle 2",
			"translation":[
				0,
				0.6767913103103638,
				-0.27055513858795166
			]
		},
		{
			"mesh":3,
			"name":"Handle 1",
			"translation":[
				0,
				0.6767913103103638,
				-0.27055513858795166
			]
		},
		{
			"mesh":4,
			"name":"Box",
			"translation":[
				0,
				0.6767913103103638,
				-0.26120758056640625
			]
		},
		{
			"mesh":5,
			"name":"Basis",
			"translation":[
				0,
				0.676872730255127,
				0
			]
		}
	],
	"materials":[
		{
			"extensions":{
				"KHR_materials_specular":{
					"specularFactor":0
				},
				"KHR_materials_ior":{
					"ior":1.4500000476837158
				}
			},
			"name":"Vintage table",
			"normalTexture":{
				"index":0
			},
			"pbrMetallicRoughness":{
				"baseColorTexture":{
					"index":1
				},
				"metallicRoughnessTexture":{
					"index":2
				}
			}
		}
	],
	"meshes":[
		{
			"name":"Tabletop",
			"primitives":[
				{
					"attributes":{
						"POSITION":0,
						"NORMAL":1,
						"TEXCOORD_0":2
					},
					"indices":3,
					"material":0
				}
			]
		},
		{
			"name":"Leg",
			"primitives":[
				{
					"attributes":{
						"POSITION":4,
						"NORMAL":5,
						"TEXCOORD_0":6
					},
					"indices":7,
					"material":0
				}
			]
		},
		{
			"name":"Handle 2",
			"primitives":[
				{
					"attributes":{
						"POSITION":8,
						"NORMAL":9,
						"TEXCOORD_0":10
					},
					"indices":11,
					"material":0
				}
			]
		},
		{
			"name":"Handle 1",
			"primitives":[
				{
					"attributes":{
						"POSITION":12,
						"NORMAL":13,
						"TEXCOORD_0":14
					},
					"indices":15,
					"material":0
				}
			]
		},
		{
			"name":"Box",
			"primitives":[
				{
					"attributes":{
						"POSITION":16,
						"NORMAL":17,
						"TEXCOORD_0":18
					},
					"indices":19,
					"material":0
				}
			]
		},
		{
			"name":"Basis",
			"primitives":[
				{
					"attributes":{
						"POSITION":20,
						"NORMAL":21,
						"TEXCOORD_0":22
					},
					"indices":23,
					"material":0
				}
			]
		}
	],
	"textures":[
		{
			"sampler":0,
			"source":0
		},
		{
			"sampler":0,
			"source":1
		},
		{
			"sampler":0,
			"source":2
		}
	],
	"images":[
		{
			"mimeType":"image/png",
			"name":"vintage_table_normal",
			"uri":"vintage_table_normal.png"
		},
		{
			"mimeType":"image/png",
			"name":"vintage_table_base_color",
			"uri":"vintage_table_base_color.png"
		},
		{
			"mimeType":"image/png",
			"name":"vintage_table_metallic_roughness",
			"uri":"vintage_table_metallic_roughness.png"
		}
	],
	"accessors":[
		{
			"bufferView":0,
			"componentType":5126,
			"count":40,
			"max":[
				0.5,
				0.375,
				0.30000001192092896
			],
			"min":[
				-0.5,
				0.3545219898223877,
				-0.30000001192092896
			],
			"type":"VEC3"
		},
		{
			"bufferView":1,
			"componentType":5126,
			"count":40,
			"type":"VEC3"
		},
		{
			"bufferView":2,
			"componentType":5126,
			"count":40,
			"type":"VEC2"
		},
		{
			"bufferView":3,
			"componentType":5123,
			"count":132,
			"type":"SCALAR"
		},
		{
			"bufferView":4,
			"componentType":5126,
			"count":96,
			"max":[
				0.4550563395023346,
				0.07862021774053574,
				0.2583743929862976
			],
			"min":[
				-0.4550563395023346,
				-0.6512613892555237,
				-0.2583743929862976
			],
			"type":"VEC3"
		},
		{
			"bufferView":5,
			"componentType":5126,
			"count":96,
			"type":"VEC3"
		},
		{
			"bufferView":6,
			"componentType":5126,
			"count":96,
			"type":"VEC2"
		},
		{
			"bufferView":7,
			"componentType":5123,
			"count":192,
			"type":"SCALAR"
		},
		{
			"bufferView":8,
			"componentType":5126,
			"count":90,
			"max":[
				0.055462609976530075,
				0.008673870004713535,
				0.0006165131344459951
			],
			"min":[
				-0.055462609976530075,
				-0.008673870004713535,
				-0.007253855932503939
			],
			"type":"VEC3"
		},
		{
			"bufferView":9,
			"componentType":5126,
			"count":90,
			"type":"VEC3"
		},
		{
			"bufferView":10,
			"componentType":5126,
			"count":90,
			"type":"VEC2"
		},
		{
			"bufferView":11,
			"componentType":5123,
			"count":384,
			"type":"SCALAR"
		},
		{
			"bufferView":12,
			"componentType":5126,
			"count":162,
			"max":[
				0.051845747977495193,
				0.005127076059579849,
				-0.005590834654867649
			],
			"min":[
				-0.051845744252204895,
				-0.005127076059579849,
				-0.028138190507888794
			],
			"type":"VEC3"
		},
		{
			"bufferView":13,
			"componentType":5126,
			"count":162,
			"type":"VEC3"
		},
		{
			"bufferView":14,
			"componentType":5126,
			"count":162,
			"type":"VEC2"
		},
		{
			"bufferView":15,
			"componentType":5123,
			"count":816,
			"type":"SCALAR"
		},
		{
			"bufferView":16,
			"componentType":5126,
			"count":20,
			"max":[
				0.20000000298023224,
				0.05000000074505806,
				0.009347587823867798
			],
			"min":[
				-0.20000000298023224,
				-0.05000000074505806,
				-0.00934755802154541
			],
			"type":"VEC3"
		},
		{
			"bufferView":17,
			"componentType":5126,
			"count":20,
			"type":"VEC3"
		},
		{
			"bufferView":18,
			"componentType":5126,
			"count":20,
			"type":"VEC2"
		},
		{
			"bufferView":19,
			"componentType":5123,
			"count":30,
			"type":"SCALAR"
		},
		{
			"bufferView":20,
			"componentType":5126,
			"count":40,
			"max":[
				0.44841113686561584,
				0.05753147602081299,
				0.2515867352485657
			],
			"min":[
				-0.44841113686561584,
				-0.05768754705786705,
				-0.2515867352485657
			],
			"type":"VEC3"
		},
		{
			"bufferView":21,
			"componentType":5126,
			"count":40,
			"type":"VEC3"
		},
		{
			"bufferView":22,
			"componentType":5126,
			"count":40,
			"type":"VEC2"
		},
		{
			"bufferView":23,
			"componentType":5123,
			"count":72,
			"type":"SCALAR"
		}
	],
	"bufferViews":[
		{
			"buffer":0,
			"byteLength":480,
			"byteOffset":0,
			"target":34962
		},
		{
			"buffer":0,
			"byteLength":480,
			"byteOffset":480,
			"target":34962
		},
		{
			"buffer":0,
			"byteLength":320,
			"byteOffset":960,
			"target":34962
		},
		{
			"buffer":0,
			"byteLength":264,
			"byteOffset":1280,
			"target":34963
		},
		{
			"buffer":0,
			"byteLength":1152,
			"byteOffset":1544,
			"target":34962
		},
		{
			"buffer":0,
			"byteLength":1152,
			"byteOffset":2696,
			"target":34962
		},
		{
			"buffer":0,
			"byteLength":768,
			"byteOffset":3848,
			"target":34962
		},
		{
			"buffer":0,
			"byteLength":384,
			"byteOffset":4616,
			"target":34963
		},
		{
			"buffer":0,
			"byteLength":1080,
			"byteOffset":5000,
			"target":34962
		},
		{
			"buffer":0,
			"byteLength":1080,
			"byteOffset":6080,
			"target":34962
		},
		{
			"buffer":0,
			"byteLength":720,
			"byteOffset":7160,
			"target":34962
		},
		{
			"buffer":0,
			"byteLength":768,
			"byteOffset":7880,
			"target":34963
		},
		{
			"buffer":0,
			"byteLength":1944,
			"byteOffset":8648,
			"target":34962
		},
		{
			"buffer":0,
			"byteLength":1944,
			"byteOffset":10592,
			"target":34962
		},
		{
			"buffer":0,
			"byteLength":1296,
			"byteOffset":12536,
			"target":34962
		},
		{
			"buffer":0,
			"byteLength":1632,
			"byteOffset":13832,
			"target":34963
		},
		{
			"buffer":0,
			"byteLength":240,
			"byteOffset":15464,
			"target":34962
		},
		{
			"buffer":0,
			"byteLength":240,
			"byteOffset":15704,
			"target":34962
		},
		{
			"buffer":0,
			"byteLength":160,
			"byteOffset":15944,
			"target":34962
		},
		{
			"buffer":0,
			"byteLength":60,
			"byteOffset":16104,
			"target":34963
		},
		{
			"buffer":0,
			"byteLength":480,
			"byteOffset":16164,
			"target":34962
		},
		{
			"buffer":0,
			"byteLength":480,
			"byteOffset":16644,
			"target":34962
		},
		{
			"buffer":0,
			"byteLength":320,
			"byteOffset":17124,
			"target":34962
		},
		{
			"buffer":0,
			"byteLength":144,
			"byteOffset":17444,
			"target":34963
		}
	],
	"samplers":[
		{
			"magFilter":9729,
			"minFilter":9987
		}
	],
	"buffers":[
		{
			"byteLength":17588,
			"uri":"vintage_table.bin"
		}
	]
}
