{
	"asset":{
		"copyright":"Yara Gardaria",
		"generator":"Khronos glTF Blender I/O v4.0.44",
		"version":"2.0"
	},
	"extensionsUsed":[
		"KHR_materials_specular",
		"KHR_materials_ior"
	],
	"scene":0,
	"scenes":[
		{
			"name":"Scene",
			"nodes":[
				0,
				1,
				2,
				3,
				4,
				5,
				6,
				7,
				8,
				9,
				10,
				11,
				12,
				13
			]
		}
	],
	"nodes":[
		{
			"mesh":0,
			"name":"Box"
		},
		{
			"mesh":1,
			"name":"Legs"
		},
		{
			"mesh":2,
			"name":"Stand"
		},
		{
			"mesh":3,
			"name":"Screen"
		},
		{
			"mesh":4,
			"name":"Settings panel"
		},
		{
			"mesh":5,
			"name":"Button 1 base"
		},
		{
			"mesh":6,
			"name":"Button 1 lever"
		},
		{
			"mesh":7,
			"name":"Button 2 base"
		},
		{
			"mesh":8,
			"name":"Button 2 lever"
		},
		{
			"mesh":9,
			"name":"Small button 1"
		},
		{
			"mesh":10,
			"name":"Small button 2"
		},
		{
			"mesh":11,
			"name":"Small button 3"
		},
		{
			"mesh":12,
			"name":"Small button 4"
		},
		{
			"mesh":13,
			"name":"Small button 1 base",
			"scale":[
				1.2711880207061768,
				1.2711880207061768,
				1.2711880207061768
			]
		}
	],
	"materials":[
		{
			"doubleSided":true,
			"extensions":{
				"KHR_materials_specular":{
					"specularFactor":0
				},
				"KHR_materials_ior":{
					"ior":1.4500000476837158
				}
			},
			"name":"Retro TV",
			"normalTexture":{
				"index":0
			},
			"pbrMetallicRoughness":{
				"baseColorTexture":{
					"index":1
				},
				"metallicRoughnessTexture":{
					"index":2
				}
			}
		}
	],
	"meshes":[
		{
			"name":"Box",
			"primitives":[
				{
					"attributes":{
						"POSITION":0,
						"NORMAL":1,
						"TEXCOORD_0":2
					},
					"indices":3,
					"material":0
				}
			]
		},
		{
			"name":"Legs",
			"primitives":[
				{
					"attributes":{
						"POSITION":4,
						"NORMAL":5,
						"TEXCOORD_0":6
					},
					"indices":7,
					"material":0
				}
			]
		},
		{
			"name":"Stand",
			"primitives":[
				{
					"attributes":{
						"POSITION":8,
						"NORMAL":9,
						"TEXCOORD_0":10
					},
					"indices":11,
					"material":0
				}
			]
		},
		{
			"name":"Screen frame",
			"primitives":[
				{
					"attributes":{
						"POSITION":12,
						"NORMAL":13,
						"TEXCOORD_0":14
					},
					"indices":15,
					"material":0
				}
			]
		},
		{
			"name":"Settings panel frame",
			"primitives":[
				{
					"attributes":{
						"POSITION":16,
						"NORMAL":17,
						"TEXCOORD_0":18
					},
					"indices":19,
					"material":0
				}
			]
		},
		{
			"name":"Button 1 base",
			"primitives":[
				{
					"attributes":{
						"POSITION":20,
						"NORMAL":21,
						"TEXCOORD_0":22
					},
					"indices":23,
					"material":0
				}
			]
		},
		{
			"name":"Button 1 lever",
			"primitives":[
				{
					"attributes":{
						"POSITION":24,
						"NORMAL":25,
						"TEXCOORD_0":26
					},
					"indices":27,
					"material":0
				}
			]
		},
		{
			"name":"Button 2 base",
			"primitives":[
				{
					"attributes":{
						"POSITION":28,
						"NORMAL":29,
						"TEXCOORD_0":30
					},
					"indices":31,
					"material":0
				}
			]
		},
		{
			"name":"Button 2 lever",
			"primitives":[
				{
					"attributes":{
						"POSITION":32,
						"NORMAL":33,
						"TEXCOORD_0":34
					},
					"indices":35,
					"material":0
				}
			]
		},
		{
			"name":"Small button 1",
			"primitives":[
				{
					"attributes":{
						"POSITION":36,
						"NORMAL":37,
						"TEXCOORD_0":38
					},
					"indices":39,
					"material":0
				}
			]
		},
		{
			"name":"Small button 2",
			"primitives":[
				{
					"attributes":{
						"POSITION":40,
						"NORMAL":41,
						"TEXCOORD_0":42
					},
					"indices":43,
					"material":0
				}
			]
		},
		{
			"name":"Small button 3",
			"primitives":[
				{
					"attributes":{
						"POSITION":44,
						"NORMAL":45,
						"TEXCOORD_0":46
					},
					"indices":47,
					"material":0
				}
			]
		},
		{
			"name":"Small button 4",
			"primitives":[
				{
					"attributes":{
						"POSITION":48,
						"NORMAL":49,
						"TEXCOORD_0":50
					},
					"indices":51,
					"material":0
				}
			]
		},
		{
			"name":"Small button 1 base",
			"primitives":[
				{
					"attributes":{
						"POSITION":52,
						"NORMAL":53,
						"TEXCOORD_0":54
					},
					"indices":55,
					"material":0
				}
			]
		}
	],
	"textures":[
		{
			"sampler":0,
			"source":0
		},
		{
			"sampler":0,
			"source":1
		},
		{
			"sampler":0,
			"source":2
		}
	],
	"images":[
		{
			"mimeType":"image/png",
			"name":"retro_tv_normal",
			"uri":"retro_tv_normal.png"
		},
		{
			"mimeType":"image/png",
			"name":"retro_tv_base_color",
			"uri":"retro_tv_base_color.png"
		},
		{
			"mimeType":"image/png",
			"name":"retro_tv_metallic_roughness",
			"uri":"retro_tv_metallic_roughness.png"
		}
	],
	"accessors":[
		{
			"bufferView":0,
			"componentType":5126,
			"count":332,
			"max":[
				0.39146319031715393,
				1.029567837715149,
				0.19522921741008759
			],
			"min":[
				-0.3914632499217987,
				0.5500012636184692,
				-0.1953369826078415
			],
			"type":"VEC3"
		},
		{
			"bufferView":1,
			"componentType":5126,
			"count":332,
			"type":"VEC3"
		},
		{
			"bufferView":2,
			"componentType":5126,
			"count":332,
			"type":"VEC2"
		},
		{
			"bufferView":3,
			"componentType":5123,
			"count":1536,
			"type":"SCALAR"
		},
		{
			"bufferView":4,
			"componentType":5126,
			"count":72,
			"max":[
				0.3881419897079468,
				0.5500011444091797,
				0.19256632030010223
			],
			"min":[
				-0.3881419897079468,
				1.1622905731201172e-06,
				-0.19256632030010223
			],
			"type":"VEC3"
		},
		{
			"bufferView":5,
			"componentType":5126,
			"count":72,
			"type":"VEC3"
		},
		{
			"bufferView":6,
			"componentType":5126,
			"count":72,
			"type":"VEC2"
		},
		{
			"bufferView":7,
			"componentType":5123,
			"count":192,
			"type":"SCALAR"
		},
		{
			"bufferView":8,
			"componentType":5126,
			"count":210,
			"max":[
				0.29460427165031433,
				0.5500012636184692,
				0.14866934716701508
			],
			"min":[
				-0.29460427165031433,
				0.5211088061332703,
				-0.14866934716701508
			],
			"type":"VEC3"
		},
		{
			"bufferView":9,
			"componentType":5126,
			"count":210,
			"type":"VEC3"
		},
		{
			"bufferView":10,
			"componentType":5126,
			"count":210,
			"type":"VEC2"
		},
		{
			"bufferView":11,
			"componentType":5123,
			"count":594,
			"type":"SCALAR"
		},
		{
			"bufferView":12,
			"componentType":5126,
			"count":260,
			"max":[
				0.3648901581764221,
				1.012506127357483,
				-0.17684289813041687
			],
			"min":[
				-0.15858368575572968,
				0.5670628547668457,
				-0.19960297644138336
			],
			"type":"VEC3"
		},
		{
			"bufferView":13,
			"componentType":5126,
			"count":260,
			"type":"VEC3"
		},
		{
			"bufferView":14,
			"componentType":5126,
			"count":260,
			"type":"VEC2"
		},
		{
			"bufferView":15,
			"componentType":5123,
			"count":1470,
			"type":"SCALAR"
		},
		{
			"bufferView":16,
			"componentType":5126,
			"count":96,
			"max":[
				-0.1833617240190506,
				1.008758544921875,
				-0.18696746230125427
			],
			"min":[
				-0.3696077764034271,
				0.5708104968070984,
				-0.20114858448505402
			],
			"type":"VEC3"
		},
		{
			"bufferView":17,
			"componentType":5126,
			"count":96,
			"type":"VEC3"
		},
		{
			"bufferView":18,
			"componentType":5126,
			"count":96,
			"type":"VEC2"
		},
		{
			"bufferView":19,
			"componentType":5123,
			"count":378,
			"type":"SCALAR"
		},
		{
			"bufferView":20,
			"componentType":5126,
			"count":123,
			"max":[
				-0.22705629467964172,
				0.9100677967071533,
				-0.17603690922260284
			],
			"min":[
				-0.27790382504463196,
				0.8592202663421631,
				-0.19454464316368103
			],
			"type":"VEC3"
		},
		{
			"bufferView":21,
			"componentType":5126,
			"count":123,
			"type":"VEC3"
		},
		{
			"bufferView":22,
			"componentType":5126,
			"count":123,
			"type":"VEC2"
		},
		{
			"bufferView":23,
			"componentType":5123,
			"count":468,
			"type":"SCALAR"
		},
		{
			"bufferView":24,
			"componentType":5126,
			"count":36,
			"max":[
				-0.23548533022403717,
				0.8900457620620728,
				-0.19214625656604767
			],
			"min":[
				-0.26947495341300964,
				0.8792425394058228,
				-0.19748526811599731
			],
			"type":"VEC3"
		},
		{
			"bufferView":25,
			"componentType":5126,
			"count":36,
			"type":"VEC3"
		},
		{
			"bufferView":26,
			"componentType":5126,
			"count":36,
			"type":"VEC2"
		},
		{
			"bufferView":27,
			"componentType":5123,
			"count":96,
			"type":"SCALAR"
		},
		{
			"bufferView":28,
			"componentType":5126,
			"count":123,
			"max":[
				-0.22705629467964172,
				0.8435617685317993,
				-0.17603690922260284
			],
			"min":[
				-0.27790382504463196,
				0.7927142381668091,
				-0.19454464316368103
			],
			"type":"VEC3"
		},
		{
			"bufferView":29,
			"componentType":5126,
			"count":123,
			"type":"VEC3"
		},
		{
			"bufferView":30,
			"componentType":5126,
			"count":123,
			"type":"VEC2"
		},
		{
			"bufferView":31,
			"componentType":5123,
			"count":468,
			"type":"SCALAR"
		},
		{
			"bufferView":32,
			"componentType":5126,
			"count":36,
			"max":[
				-0.2358754575252533,
				0.8267340660095215,
				-0.19214625656604767
			],
			"min":[
				-0.26908478140830994,
				0.8095419406890869,
				-0.19748526811599731
			],
			"type":"VEC3"
		},
		{
			"bufferView":33,
			"componentType":5126,
			"count":36,
			"type":"VEC3"
		},
		{
			"bufferView":34,
			"componentType":5126,
			"count":36,
			"type":"VEC2"
		},
		{
			"bufferView":35,
			"componentType":5123,
			"count":96,
			"type":"SCALAR"
		},
		{
			"bufferView":36,
			"componentType":5126,
			"count":52,
			"max":[
				-0.30483925342559814,
				0.9071998596191406,
				-0.17921413481235504
			],
			"min":[
				-0.3243550658226013,
				0.8876841068267822,
				-0.1992662250995636
			],
			"type":"VEC3"
		},
		{
			"bufferView":37,
			"componentType":5126,
			"count":52,
			"type":"VEC3"
		},
		{
			"bufferView":38,
			"componentType":5126,
			"count":52,
			"type":"VEC2"
		},
		{
			"bufferView":39,
			"componentType":5123,
			"count":180,
			"type":"SCALAR"
		},
		{
			"bufferView":40,
			"componentType":5126,
			"count":52,
			"max":[
				-0.30483925342559814,
				0.8813707828521729,
				-0.17921413481235504
			],
			"min":[
				-0.3243550658226013,
				0.8618550300598145,
				-0.1992662250995636
			],
			"type":"VEC3"
		},
		{
			"bufferView":41,
			"componentType":5126,
			"count":52,
			"type":"VEC3"
		},
		{
			"bufferView":42,
			"componentType":5126,
			"count":52,
			"type":"VEC2"
		},
		{
			"bufferView":43,
			"componentType":5123,
			"count":180,
			"type":"SCALAR"
		},
		{
			"bufferView":44,
			"componentType":5126,
			"count":52,
			"max":[
				-0.30483925342559814,
				0.8545706272125244,
				-0.17921413481235504
			],
			"min":[
				-0.3243550658226013,
				0.835054874420166,
				-0.1992662400007248
			],
			"type":"VEC3"
		},
		{
			"bufferView":45,
			"componentType":5126,
			"count":52,
			"type":"VEC3"
		},
		{
			"bufferView":46,
			"componentType":5126,
			"count":52,
			"type":"VEC2"
		},
		{
			"bufferView":47,
			"componentType":5123,
			"count":180,
			"type":"SCALAR"
		},
		{
			"bufferView":48,
			"componentType":5126,
			"count":52,
			"max":[
				-0.30483925342559814,
				0.8151198625564575,
				-0.17921413481235504
			],
			"min":[
				-0.3243550658226013,
				0.7956041097640991,
				-0.1992662250995636
			],
			"type":"VEC3"
		},
		{
			"bufferView":49,
			"componentType":5126,
			"count":52,
			"type":"VEC3"
		},
		{
			"bufferView":50,
			"componentType":5126,
			"count":52,
			"type":"VEC2"
		},
		{
			"bufferView":51,
			"componentType":5123,
			"count":180,
			"type":"SCALAR"
		},
		{
			"bufferView":52,
			"componentType":5126,
			"count":208,
			"max":[
				-0.2381853312253952,
				0.7152844667434692,
				-0.1435493379831314
			],
			"min":[
				-0.25678038597106934,
				0.6242532730102539,
				-0.14944018423557281
			],
			"type":"VEC3"
		},
		{
			"bufferView":53,
			"componentType":5126,
			"count":208,
			"type":"VEC3"
		},
		{
			"bufferView":54,
			"componentType":5126,
			"count":208,
			"type":"VEC2"
		},
		{
			"bufferView":55,
			"componentType":5123,
			"count":864,
			"type":"SCALAR"
		}
	],
	"bufferViews":[
		{
			"buffer":0,
			"byteLength":3984,
			"byteOffset":0,
			"target":34962
		},
		{
			"buffer":0,
			"byteLength":3984,
			"byteOffset":3984,
			"target":34962
		},
		{
			"buffer":0,
			"byteLength":2656,
			"byteOffset":7968,
			"target":34962
		},
		{
			"buffer":0,
			"byteLength":3072,
			"byteOffset":10624,
			"target":34963
		},
		{
			"buffer":0,
			"byteLength":864,
			"byteOffset":13696,
			"target":34962
		},
		{
			"buffer":0,
			"byteLength":864,
			"byteOffset":14560,
			"target":34962
		},
		{
			"buffer":0,
			"byteLength":576,
			"byteOffset":15424,
			"target":34962
		},
		{
			"buffer":0,
			"byteLength":384,
			"byteOffset":16000,
			"target":34963
		},
		{
			"buffer":0,
			"byteLength":2520,
			"byteOffset":16384,
			"target":34962
		},
		{
			"buffer":0,
			"byteLength":2520,
			"byteOffset":18904,
			"target":34962
		},
		{
			"buffer":0,
			"byteLength":1680,
			"byteOffset":21424,
			"target":34962
		},
		{
			"buffer":0,
			"byteLength":1188,
			"byteOffset":23104,
			"target":34963
		},
		{
			"buffer":0,
			"byteLength":3120,
			"byteOffset":24292,
			"target":34962
		},
		{
			"buffer":0,
			"byteLength":3120,
			"byteOffset":27412,
			"target":34962
		},
		{
			"buffer":0,
			"byteLength":2080,
			"byteOffset":30532,
			"target":34962
		},
		{
			"buffer":0,
			"byteLength":2940,
			"byteOffset":32612,
			"target":34963
		},
		{
			"buffer":0,
			"byteLength":1152,
			"byteOffset":35552,
			"target":34962
		},
		{
			"buffer":0,
			"byteLength":1152,
			"byteOffset":36704,
			"target":34962
		},
		{
			"buffer":0,
			"byteLength":768,
			"byteOffset":37856,
			"target":34962
		},
		{
			"buffer":0,
			"byteLength":756,
			"byteOffset":38624,
			"target":34963
		},
		{
			"buffer":0,
			"byteLength":1476,
			"byteOffset":39380,
			"target":34962
		},
		{
			"buffer":0,
			"byteLength":1476,
			"byteOffset":40856,
			"target":34962
		},
		{
			"buffer":0,
			"byteLength":984,
			"byteOffset":42332,
			"target":34962
		},
		{
			"buffer":0,
			"byteLength":936,
			"byteOffset":43316,
			"target":34963
		},
		{
			"buffer":0,
			"byteLength":432,
			"byteOffset":44252,
			"target":34962
		},
		{
			"buffer":0,
			"byteLength":432,
			"byteOffset":44684,
			"target":34962
		},
		{
			"buffer":0,
			"byteLength":288,
			"byteOffset":45116,
			"target":34962
		},
		{
			"buffer":0,
			"byteLength":192,
			"byteOffset":45404,
			"target":34963
		},
		{
			"buffer":0,
			"byteLength":1476,
			"byteOffset":45596,
			"target":34962
		},
		{
			"buffer":0,
			"byteLength":1476,
			"byteOffset":47072,
			"target":34962
		},
		{
			"buffer":0,
			"byteLength":984,
			"byteOffset":48548,
			"target":34962
		},
		{
			"buffer":0,
			"byteLength":936,
			"byteOffset":49532,
			"target":34963
		},
		{
			"buffer":0,
			"byteLength":432,
			"byteOffset":50468,
			"target":34962
		},
		{
			"buffer":0,
			"byteLength":432,
			"byteOffset":50900,
			"target":34962
		},
		{
			"buffer":0,
			"byteLength":288,
			"byteOffset":51332,
			"target":34962
		},
		{
			"buffer":0,
			"byteLength":192,
			"byteOffset":51620,
			"target":34963
		},
		{
			"buffer":0,
			"byteLength":624,
			"byteOffset":51812,
			"target":34962
		},
		{
			"buffer":0,
			"byteLength":624,
			"byteOffset":52436,
			"target":34962
		},
		{
			"buffer":0,
			"byteLength":416,
			"byteOffset":53060,
			"target":34962
		},
		{
			"buffer":0,
			"byteLength":360,
			"byteOffset":53476,
			"target":34963
		},
		{
			"buffer":0,
			"byteLength":624,
			"byteOffset":53836,
			"target":34962
		},
		{
			"buffer":0,
			"byteLength":624,
			"byteOffset":54460,
			"target":34962
		},
		{
			"buffer":0,
			"byteLength":416,
			"byteOffset":55084,
			"target":34962
		},
		{
			"buffer":0,
			"byteLength":360,
			"byteOffset":55500,
			"target":34963
		},
		{
			"buffer":0,
			"byteLength":624,
			"byteOffset":55860,
			"target":34962
		},
		{
			"buffer":0,
			"byteLength":624,
			"byteOffset":56484,
			"target":34962
		},
		{
			"buffer":0,
			"byteLength":416,
			"byteOffset":57108,
			"target":34962
		},
		{
			"buffer":0,
			"byteLength":360,
			"byteOffset":57524,
			"target":34963
		},
		{
			"buffer":0,
			"byteLength":624,
			"byteOffset":57884,
			"target":34962
		},
		{
			"buffer":0,
			"byteLength":624,
			"byteOffset":58508,
			"target":34962
		},
		{
			"buffer":0,
			"byteLength":416,
			"byteOffset":59132,
			"target":34962
		},
		{
			"buffer":0,
			"byteLength":360,
			"byteOffset":59548,
			"target":34963
		},
		{
			"buffer":0,
			"byteLength":2496,
			"byteOffset":59908,
			"target":34962
		},
		{
			"buffer":0,
			"byteLength":2496,
			"byteOffset":62404,
			"target":34962
		},
		{
			"buffer":0,
			"byteLength":1664,
			"byteOffset":64900,
			"target":34962
		},
		{
			"buffer":0,
			"byteLength":1728,
			"byteOffset":66564,
			"target":34963
		}
	],
	"samplers":[
		{
			"magFilter":9729,
			"minFilter":9987
		}
	],
	"buffers":[
		{
			"byteLength":68292,
			"uri":"retro_tv.bin"
		}
	]
}
