{
	"asset":{
		"copyright":"Yara Gardaria",
		"generator":"Khronos glTF Blender I/O v4.0.44",
		"version":"2.0"
	},
	"extensionsUsed":[
		"KHR_materials_transmission",
		"KHR_materials_ior"
	],
	"scene":0,
	"scenes":[
		{
			"name":"plastic_window",
			"nodes":[
				0,
				1,
				2,
				3,
				4,
				5,
				6,
				7,
				8,
				9,
				10,
				11
			]
		}
	],
	"nodes":[
		{
			"mesh":0,
			"name":"Windowsill"
		},
		{
			"mesh":1,
			"name":"Slopes"
		},
		{
			"mesh":2,
			"name":"Handle 2"
		},
		{
			"mesh":3,
			"name":"Handle 1"
		},
		{
			"mesh":4,
			"name":"Glass 2"
		},
		{
			"mesh":5,
			"name":"Glass 1"
		},
		{
			"mesh":6,
			"name":"Frame 5"
		},
		{
			"mesh":7,
			"name":"Frame 4"
		},
		{
			"mesh":8,
			"name":"Frame 3"
		},
		{
			"mesh":9,
			"name":"Frame 2"
		},
		{
			"mesh":10,
			"name":"Frame 1"
		},
		{
			"mesh":11,
			"name":"Drain"
		}
	],
	"materials":[
		{
			"name":"Classic plastic window",
			"normalTexture":{
				"index":0
			},
			"pbrMetallicRoughness":{
				"baseColorTexture":{
					"index":1
				},
				"metallicRoughnessTexture":{
					"index":2
				}
			}
		},
		{
			"extensions":{
				"KHR_materials_transmission":{
					"transmissionFactor":0.9345454573631287
				},
				"KHR_materials_ior":{
					"ior":1.5199999809265137
				}
			},
			"name":"Glass",
			"pbrMetallicRoughness":{
				"baseColorFactor":[
					0.569454550743103,
					0.6282984018325806,
					0.6169483661651611,
					1
				],
				"metallicFactor":0,
				"roughnessFactor":0.02545454539358616
			}
		}
	],
	"meshes":[
		{
			"name":"Windowsill",
			"primitives":[
				{
					"attributes":{
						"POSITION":0,
						"NORMAL":1,
						"TEXCOORD_0":2
					},
					"indices":3,
					"material":0
				}
			]
		},
		{
			"name":"Slopes",
			"primitives":[
				{
					"attributes":{
						"POSITION":4,
						"NORMAL":5,
						"TEXCOORD_0":6
					},
					"indices":7,
					"material":0
				}
			]
		},
		{
			"name":"Handle 2",
			"primitives":[
				{
					"attributes":{
						"POSITION":8,
						"NORMAL":9,
						"TEXCOORD_0":10
					},
					"indices":11,
					"material":0
				}
			]
		},
		{
			"name":"Handle 1",
			"primitives":[
				{
					"attributes":{
						"POSITION":12,
						"NORMAL":13,
						"TEXCOORD_0":14
					},
					"indices":15,
					"material":0
				}
			]
		},
		{
			"name":"Glass 2",
			"primitives":[
				{
					"attributes":{
						"POSITION":16,
						"NORMAL":17,
						"TEXCOORD_0":18
					},
					"indices":19,
					"material":1
				}
			]
		},
		{
			"name":"Glass 1",
			"primitives":[
				{
					"attributes":{
						"POSITION":20,
						"NORMAL":21,
						"TEXCOORD_0":22
					},
					"indices":23,
					"material":1
				}
			]
		},
		{
			"name":"Frame 5",
			"primitives":[
				{
					"attributes":{
						"POSITION":24,
						"NORMAL":25,
						"TEXCOORD_0":26
					},
					"indices":27,
					"material":0
				}
			]
		},
		{
			"name":"Frame 4",
			"primitives":[
				{
					"attributes":{
						"POSITION":28,
						"NORMAL":29,
						"TEXCOORD_0":30
					},
					"indices":31,
					"material":0
				}
			]
		},
		{
			"name":"Frame 3",
			"primitives":[
				{
					"attributes":{
						"POSITION":32,
						"NORMAL":33,
						"TEXCOORD_0":34
					},
					"indices":35,
					"material":0
				}
			]
		},
		{
			"name":"Frame 2",
			"primitives":[
				{
					"attributes":{
						"POSITION":36,
						"NORMAL":37,
						"TEXCOORD_0":38
					},
					"indices":39,
					"material":0
				}
			]
		},
		{
			"name":"Frame 1",
			"primitives":[
				{
					"attributes":{
						"POSITION":40,
						"NORMAL":41,
						"TEXCOORD_0":42
					},
					"indices":43,
					"material":0
				}
			]
		},
		{
			"name":"Drain",
			"primitives":[
				{
					"attributes":{
						"POSITION":44,
						"NORMAL":45,
						"TEXCOORD_0":46
					},
					"indices":47,
					"material":0
				}
			]
		}
	],
	"textures":[
		{
			"sampler":0,
			"source":0
		},
		{
			"sampler":0,
			"source":1
		},
		{
			"sampler":0,
			"source":2
		}
	],
	"images":[
		{
			"mimeType":"image/png",
			"name":"classic_plastic_window_normal",
			"uri":"classic_plastic_window_normal.png"
		},
		{
			"mimeType":"image/png",
			"name":"classic_plastic_window_base_color",
			"uri":"classic_plastic_window_base_color.png"
		},
		{
			"mimeType":"image/png",
			"name":"classic_plastic_window_metallic_roughness",
			"uri":"classic_plastic_window_metallic_roughness.png"
		}
	],
	"accessors":[
		{
			"bufferView":0,
			"componentType":5126,
			"count":24,
			"max":[
				0.7229999899864197,
				0.8675000071525574,
				0.022715400904417038
			],
			"min":[
				-0.7229999899864197,
				0.8299999833106995,
				-0.11500000208616257
			],
			"type":"VEC3"
		},
		{
			"bufferView":1,
			"componentType":5126,
			"count":24,
			"type":"VEC3"
		},
		{
			"bufferView":2,
			"componentType":5126,
			"count":24,
			"type":"VEC2"
		},
		{
			"bufferView":3,
			"componentType":5123,
			"count":42,
			"type":"SCALAR"
		},
		{
			"bufferView":4,
			"componentType":5126,
			"count":50,
			"max":[
				0.699999988079071,
				2.3299999237060547,
				0.07500000298023224
			],
			"min":[
				-0.699999988079071,
				0.8301959037780762,
				-0.07500000298023224
			],
			"type":"VEC3"
		},
		{
			"bufferView":5,
			"componentType":5126,
			"count":50,
			"type":"VEC3"
		},
		{
			"bufferView":6,
			"componentType":5126,
			"count":50,
			"type":"VEC2"
		},
		{
			"bufferView":7,
			"componentType":5123,
			"count":90,
			"type":"SCALAR"
		},
		{
			"bufferView":8,
			"componentType":5126,
			"count":116,
			"max":[
				0.1365133374929428,
				1.6562132835388184,
				-0.0037159081548452377
			],
			"min":[
				0.03489585965871811,
				1.560081958770752,
				-0.04938153550028801
			],
			"type":"VEC3"
		},
		{
			"bufferView":9,
			"componentType":5126,
			"count":116,
			"type":"VEC3"
		},
		{
			"bufferView":10,
			"componentType":5126,
			"count":116,
			"type":"VEC2"
		},
		{
			"bufferView":11,
			"componentType":5123,
			"count":552,
			"type":"SCALAR"
		},
		{
			"bufferView":12,
			"componentType":5126,
			"count":54,
			"max":[
				0.05780060961842537,
				1.6029868125915527,
				0.005939761642366648
			],
			"min":[
				0.03280061110854149,
				1.5379867553710938,
				-0.004060238134115934
			],
			"type":"VEC3"
		},
		{
			"bufferView":13,
			"componentType":5126,
			"count":54,
			"type":"VEC3"
		},
		{
			"bufferView":14,
			"componentType":5126,
			"count":54,
			"type":"VEC2"
		},
		{
			"bufferView":15,
			"componentType":5123,
			"count":162,
			"type":"SCALAR"
		},
		{
			"bufferView":16,
			"componentType":5126,
			"count":24,
			"max":[
				0.5123118162155151,
				2.1602344512939453,
				0.021769672632217407
			],
			"min":[
				0.08992713689804077,
				0.9807388782501221,
				0.014613272622227669
			],
			"type":"VEC3"
		},
		{
			"bufferView":17,
			"componentType":5126,
			"count":24,
			"type":"VEC3"
		},
		{
			"bufferView":18,
			"componentType":5126,
			"count":24,
			"type":"VEC2"
		},
		{
			"bufferView":19,
			"componentType":5123,
			"count":36,
			"type":"SCALAR"
		},
		{
			"bufferView":20,
			"componentType":5126,
			"count":24,
			"max":[
				-0.046605393290519714,
				2.204897165298462,
				0.0356997586786747
			],
			"min":[
				-0.5561054348945618,
				0.9360760450363159,
				0.028657415881752968
			],
			"type":"VEC3"
		},
		{
			"bufferView":21,
			"componentType":5126,
			"count":24,
			"type":"VEC3"
		},
		{
			"bufferView":22,
			"componentType":5126,
			"count":24,
			"type":"VEC2"
		},
		{
			"bufferView":23,
			"componentType":5123,
			"count":36,
			"type":"SCALAR"
		},
		{
			"bufferView":24,
			"componentType":5126,
			"count":56,
			"max":[
				0.5355091691017151,
				2.182546377182007,
				0.02994460240006447
			],
			"min":[
				0.06746150553226471,
				0.9584270715713501,
				0.006438340060412884
			],
			"type":"VEC3"
		},
		{
			"bufferView":25,
			"componentType":5126,
			"count":56,
			"type":"VEC3"
		},
		{
			"bufferView":26,
			"componentType":5126,
			"count":56,
			"type":"VEC2"
		},
		{
			"bufferView":27,
			"componentType":5123,
			"count":144,
			"type":"SCALAR"
		},
		{
			"bufferView":28,
			"componentType":5126,
			"count":56,
			"max":[
				-0.022439828142523766,
				2.226881742477417,
				0.04164173826575279
			],
			"min":[
				-0.5793780088424683,
				0.9140916466712952,
				0.022715432569384575
			],
			"type":"VEC3"
		},
		{
			"bufferView":29,
			"componentType":5126,
			"count":56,
			"type":"VEC3"
		},
		{
			"bufferView":30,
			"componentType":5126,
			"count":56,
			"type":"VEC2"
		},
		{
			"bufferView":31,
			"componentType":5123,
			"count":144,
			"type":"SCALAR"
		},
		{
			"bufferView":32,
			"componentType":5126,
			"count":64,
			"max":[
				0.5800779461860657,
				2.226881742477417,
				0.03099372610449791
			],
			"min":[
				0.02313971519470215,
				0.9140916466712952,
				0.005389217287302017
			],
			"type":"VEC3"
		},
		{
			"bufferView":33,
			"componentType":5126,
			"count":64,
			"type":"VEC3"
		},
		{
			"bufferView":34,
			"componentType":5126,
			"count":64,
			"type":"VEC2"
		},
		{
			"bufferView":35,
			"componentType":5123,
			"count":96,
			"type":"SCALAR"
		},
		{
			"bufferView":36,
			"componentType":5126,
			"count":16,
			"max":[
				0.024503285065293312,
				2.226881742477417,
				0.04164173826575279
			],
			"min":[
				-0.024503285065293312,
				0.9140916466712952,
				0.022715432569384575
			],
			"type":"VEC3"
		},
		{
			"bufferView":37,
			"componentType":5126,
			"count":16,
			"type":"VEC3"
		},
		{
			"bufferView":38,
			"componentType":5126,
			"count":16,
			"type":"VEC2"
		},
		{
			"bufferView":39,
			"componentType":5123,
			"count":24,
			"type":"SCALAR"
		},
		{
			"bufferView":40,
			"componentType":5126,
			"count":48,
			"max":[
				0.6336206793785095,
				2.2827699184417725,
				0.041759125888347626
			],
			"min":[
				-0.6336206793785095,
				0.8599613308906555,
				0.022715432569384575
			],
			"type":"VEC3"
		},
		{
			"bufferView":41,
			"componentType":5126,
			"count":48,
			"type":"VEC3"
		},
		{
			"bufferView":42,
			"componentType":5126,
			"count":48,
			"type":"VEC2"
		},
		{
			"bufferView":43,
			"componentType":5123,
			"count":72,
			"type":"SCALAR"
		},
		{
			"bufferView":44,
			"componentType":5126,
			"count":22,
			"max":[
				0.7033599615097046,
				0.860669732093811,
				0.08850303292274475
			],
			"min":[
				-0.7033599615097046,
				0.8299999833106995,
				0.041759103536605835
			],
			"type":"VEC3"
		},
		{
			"bufferView":45,
			"componentType":5126,
			"count":22,
			"type":"VEC3"
		},
		{
			"bufferView":46,
			"componentType":5126,
			"count":22,
			"type":"VEC2"
		},
		{
			"bufferView":47,
			"componentType":5123,
			"count":42,
			"type":"SCALAR"
		}
	],
	"bufferViews":[
		{
			"buffer":0,
			"byteLength":288,
			"byteOffset":0,
			"target":34962
		},
		{
			"buffer":0,
			"byteLength":288,
			"byteOffset":288,
			"target":34962
		},
		{
			"buffer":0,
			"byteLength":192,
			"byteOffset":576,
			"target":34962
		},
		{
			"buffer":0,
			"byteLength":84,
			"byteOffset":768,
			"target":34963
		},
		{
			"buffer":0,
			"byteLength":600,
			"byteOffset":852,
			"target":34962
		},
		{
			"buffer":0,
			"byteLength":600,
			"byteOffset":1452,
			"target":34962
		},
		{
			"buffer":0,
			"byteLength":400,
			"byteOffset":2052,
			"target":34962
		},
		{
			"buffer":0,
			"byteLength":180,
			"byteOffset":2452,
			"target":34963
		},
		{
			"buffer":0,
			"byteLength":1392,
			"byteOffset":2632,
			"target":34962
		},
		{
			"buffer":0,
			"byteLength":1392,
			"byteOffset":4024,
			"target":34962
		},
		{
			"buffer":0,
			"byteLength":928,
			"byteOffset":5416,
			"target":34962
		},
		{
			"buffer":0,
			"byteLength":1104,
			"byteOffset":6344,
			"target":34963
		},
		{
			"buffer":0,
			"byteLength":648,
			"byteOffset":7448,
			"target":34962
		},
		{
			"buffer":0,
			"byteLength":648,
			"byteOffset":8096,
			"target":34962
		},
		{
			"buffer":0,
			"byteLength":432,
			"byteOffset":8744,
			"target":34962
		},
		{
			"buffer":0,
			"byteLength":324,
			"byteOffset":9176,
			"target":34963
		},
		{
			"buffer":0,
			"byteLength":288,
			"byteOffset":9500,
			"target":34962
		},
		{
			"buffer":0,
			"byteLength":288,
			"byteOffset":9788,
			"target":34962
		},
		{
			"buffer":0,
			"byteLength":192,
			"byteOffset":10076,
			"target":34962
		},
		{
			"buffer":0,
			"byteLength":72,
			"byteOffset":10268,
			"target":34963
		},
		{
			"buffer":0,
			"byteLength":288,
			"byteOffset":10340,
			"target":34962
		},
		{
			"buffer":0,
			"byteLength":288,
			"byteOffset":10628,
			"target":34962
		},
		{
			"buffer":0,
			"byteLength":192,
			"byteOffset":10916,
			"target":34962
		},
		{
			"buffer":0,
			"byteLength":72,
			"byteOffset":11108,
			"target":34963
		},
		{
			"buffer":0,
			"byteLength":672,
			"byteOffset":11180,
			"target":34962
		},
		{
			"buffer":0,
			"byteLength":672,
			"byteOffset":11852,
			"target":34962
		},
		{
			"buffer":0,
			"byteLength":448,
			"byteOffset":12524,
			"target":34962
		},
		{
			"buffer":0,
			"byteLength":288,
			"byteOffset":12972,
			"target":34963
		},
		{
			"buffer":0,
			"byteLength":672,
			"byteOffset":13260,
			"target":34962
		},
		{
			"buffer":0,
			"byteLength":672,
			"byteOffset":13932,
			"target":34962
		},
		{
			"buffer":0,
			"byteLength":448,
			"byteOffset":14604,
			"target":34962
		},
		{
			"buffer":0,
			"byteLength":288,
			"byteOffset":15052,
			"target":34963
		},
		{
			"buffer":0,
			"byteLength":768,
			"byteOffset":15340,
			"target":34962
		},
		{
			"buffer":0,
			"byteLength":768,
			"byteOffset":16108,
			"target":34962
		},
		{
			"buffer":0,
			"byteLength":512,
			"byteOffset":16876,
			"target":34962
		},
		{
			"buffer":0,
			"byteLength":192,
			"byteOffset":17388,
			"target":34963
		},
		{
			"buffer":0,
			"byteLength":192,
			"byteOffset":17580,
			"target":34962
		},
		{
			"buffer":0,
			"byteLength":192,
			"byteOffset":17772,
			"target":34962
		},
		{
			"buffer":0,
			"byteLength":128,
			"byteOffset":17964,
			"target":34962
		},
		{
			"buffer":0,
			"byteLength":48,
			"byteOffset":18092,
			"target":34963
		},
		{
			"buffer":0,
			"byteLength":576,
			"byteOffset":18140,
			"target":34962
		},
		{
			"buffer":0,
			"byteLength":576,
			"byteOffset":18716,
			"target":34962
		},
		{
			"buffer":0,
			"byteLength":384,
			"byteOffset":19292,
			"target":34962
		},
		{
			"buffer":0,
			"byteLength":144,
			"byteOffset":19676,
			"target":34963
		},
		{
			"buffer":0,
			"byteLength":264,
			"byteOffset":19820,
			"target":34962
		},
		{
			"buffer":0,
			"byteLength":264,
			"byteOffset":20084,
			"target":34962
		},
		{
			"buffer":0,
			"byteLength":176,
			"byteOffset":20348,
			"target":34962
		},
		{
			"buffer":0,
			"byteLength":84,
			"byteOffset":20524,
			"target":34963
		}
	],
	"samplers":[
		{
			"magFilter":9729,
			"minFilter":9987
		}
	],
	"buffers":[
		{
			"byteLength":20608,
			"uri":"classic_plastic_window.bin"
		}
	]
}
