{
	"asset":{
		"copyright":"Yara Gardaria",
		"generator":"Khronos glTF Blender I/O v4.0.44",
		"version":"2.0"
	},
	"scene":0,
	"scenes":[
		{
			"name":"Scene",
			"nodes":[
				0,
				1,
				2,
				6,
				7
			]
		}
	],
	"nodes":[
		{
			"mesh":0,
			"name":"Architrave 1",
			"translation":[
				0,
				0.9999999403953552,
				0
			]
		},
		{
			"mesh":1,
			"name":"Architrave 2",
			"translation":[
				0,
				0.9999999403953552,
				0
			]
		},
		{
			"mesh":2,
			"name":"Door frame",
			"translation":[
				0,
				0.9999999403953552,
				0
			]
		},
		{
			"mesh":3,
			"name":"Doorhandle 1",
			"translation":[
				0.7348896861076355,
				-0.11622536182403564,
				-0.04650846868753433
			]
		},
		{
			"mesh":4,
			"name":"Doorhandle 2",
			"translation":[
				0.7348896861076355,
				-0.11622536182403564,
				-0.04376164823770523
			]
		},
		{
			"mesh":5,
			"name":"Doorhandle 3",
			"translation":[
				0.7348897457122803,
				-0.11622536182403564,
				-0.04636339098215103
			]
		},
		{
			"children":[
				3,
				4,
				5
			],
			"mesh":6,
			"name":"Door leaf",
			"translation":[
				-0.40000006556510925,
				1.0465294122695923,
				-0.049999088048934937
			]
		},
		{
			"mesh":7,
			"name":"Cutout"
		}
	],
	"animations":[
		{
			"channels":[
				{
					"sampler":0,
					"target":{
						"node":6,
						"path":"rotation"
					}
				}
			],
			"name":"Open",
			"samplers":[
				{
					"input":31,
					"interpolation":"LINEAR",
					"output":32
				}
			]
		}
	],
	"materials":[
		{
			"doubleSided":true,
			"name":"Classic door",
			"normalTexture":{
				"index":0
			},
			"pbrMetallicRoughness":{
				"baseColorTexture":{
					"index":1
				},
				"metallicRoughnessTexture":{
					"index":2
				}
			}
		},
		{
			"name":"Doorhandle",
			"normalTexture":{
				"index":3
			},
			"pbrMetallicRoughness":{
				"baseColorTexture":{
					"index":4
				},
				"metallicRoughnessTexture":{
					"index":5
				}
			}
		}
	],
	"meshes":[
		{
			"name":"Architrave 1",
			"primitives":[
				{
					"attributes":{
						"POSITION":0,
						"NORMAL":1,
						"TEXCOORD_0":2
					},
					"indices":3,
					"material":0
				}
			]
		},
		{
			"name":"Architrave 2",
			"primitives":[
				{
					"attributes":{
						"POSITION":4,
						"NORMAL":5,
						"TEXCOORD_0":6
					},
					"indices":7,
					"material":0
				}
			]
		},
		{
			"name":"Door frame",
			"primitives":[
				{
					"attributes":{
						"POSITION":8,
						"NORMAL":9,
						"TEXCOORD_0":10
					},
					"indices":11,
					"material":0
				}
			]
		},
		{
			"name":"Doorhandle 1",
			"primitives":[
				{
					"attributes":{
						"POSITION":12,
						"NORMAL":13,
						"TEXCOORD_0":14
					},
					"indices":15,
					"material":1
				}
			]
		},
		{
			"name":"Doorhandle 2",
			"primitives":[
				{
					"attributes":{
						"POSITION":16,
						"NORMAL":17,
						"TEXCOORD_0":18
					},
					"indices":19,
					"material":1
				}
			]
		},
		{
			"name":"Doorhandle 3",
			"primitives":[
				{
					"attributes":{
						"POSITION":20,
						"NORMAL":21,
						"TEXCOORD_0":22
					},
					"indices":23,
					"material":1
				}
			]
		},
		{
			"name":"Door leaf",
			"primitives":[
				{
					"attributes":{
						"POSITION":24,
						"NORMAL":25,
						"TEXCOORD_0":26
					},
					"indices":27,
					"material":0
				}
			]
		},
		{
			"name":"Cutout",
			"primitives":[
				{
					"attributes":{
						"POSITION":28,
						"NORMAL":29
					},
					"indices":30
				}
			]
		}
	],
	"textures":[
		{
			"sampler":0,
			"source":0
		},
		{
			"sampler":0,
			"source":1
		},
		{
			"sampler":0,
			"source":2
		},
		{
			"sampler":0,
			"source":0
		},
		{
			"sampler":0,
			"source":1
		},
		{
			"sampler":0,
			"source":2
		}
	],
	"images":[
		{
			"mimeType":"image/png",
			"name":"classic_door_normal",
			"uri":"classic_door_normal.png"
		},
		{
			"mimeType":"image/png",
			"name":"classic_door_base_color",
			"uri":"classic_door_base_color.png"
		},
		{
			"mimeType":"image/png",
			"name":"classic_door_metallic_roughness",
			"uri":"classic_door_metallic_roughness.png"
		}
	],
	"accessors":[
		{
			"bufferView":0,
			"componentType":5126,
			"count":80,
			"max":[
				0.49794140458106995,
				1.100000023841858,
				0.09679985791444778
			],
			"min":[
				-0.49794140458106995,
				1.0122226476669312,
				-0.09679985791444778
			],
			"type":"VEC3"
		},
		{
			"bufferView":1,
			"componentType":5126,
			"count":80,
			"type":"VEC3"
		},
		{
			"bufferView":2,
			"componentType":5126,
			"count":80,
			"type":"VEC2"
		},
		{
			"bufferView":3,
			"componentType":5123,
			"count":342,
			"type":"SCALAR"
		},
		{
			"bufferView":4,
			"componentType":5126,
			"count":152,
			"max":[
				0.5,
				1.097873568534851,
				0.09644372761249542
			],
			"min":[
				-0.5,
				-0.998755156993866,
				-0.09644372761249542
			],
			"type":"VEC3"
		},
		{
			"bufferView":5,
			"componentType":5126,
			"count":152,
			"type":"VEC3"
		},
		{
			"bufferView":6,
			"componentType":5126,
			"count":152,
			"type":"VEC2"
		},
		{
			"bufferView":7,
			"componentType":5123,
			"count":648,
			"type":"SCALAR"
		},
		{
			"bufferView":8,
			"componentType":5126,
			"count":116,
			"max":[
				0.4358677864074707,
				1.0351918935775757,
				0.07500002533197403
			],
			"min":[
				-0.4358677864074707,
				-0.998786211013794,
				-0.07500002533197403
			],
			"type":"VEC3"
		},
		{
			"bufferView":9,
			"componentType":5126,
			"count":116,
			"type":"VEC3"
		},
		{
			"bufferView":10,
			"componentType":5126,
			"count":116,
			"type":"VEC2"
		},
		{
			"bufferView":11,
			"componentType":5123,
			"count":384,
			"type":"SCALAR"
		},
		{
			"bufferView":12,
			"componentType":5126,
			"count":204,
			"max":[
				0.02943825162947178,
				0.02943824976682663,
				0.11801685392856598
			],
			"min":[
				-0.029438262805342674,
				-0.029438253492116928,
				-0.02500000223517418
			],
			"type":"VEC3"
		},
		{
			"bufferView":13,
			"componentType":5126,
			"count":204,
			"type":"VEC3"
		},
		{
			"bufferView":14,
			"componentType":5126,
			"count":204,
			"type":"VEC2"
		},
		{
			"bufferView":15,
			"componentType":5123,
			"count":960,
			"type":"SCALAR"
		},
		{
			"bufferView":16,
			"componentType":5126,
			"count":98,
			"max":[
				0.023837924003601074,
				0.023837922140955925,
				0.11362850666046143
			],
			"min":[
				-0.02383793331682682,
				-0.023837925866246223,
				-0.026105273514986038
			],
			"type":"VEC3"
		},
		{
			"bufferView":17,
			"componentType":5126,
			"count":98,
			"type":"VEC3"
		},
		{
			"bufferView":18,
			"componentType":5126,
			"count":98,
			"type":"VEC2"
		},
		{
			"bufferView":19,
			"componentType":5123,
			"count":480,
			"type":"SCALAR"
		},
		{
			"bufferView":20,
			"componentType":5126,
			"count":272,
			"max":[
				0.023792335763573647,
				0.023792337626218796,
				0.07673424482345581
			],
			"min":[
				-0.023792371153831482,
				-0.023792335763573647,
				0.01599247008562088
			],
			"type":"VEC3"
		},
		{
			"bufferView":21,
			"componentType":5126,
			"count":272,
			"type":"VEC3"
		},
		{
			"bufferView":22,
			"componentType":5126,
			"count":272,
			"type":"VEC2"
		},
		{
			"bufferView":23,
			"componentType":5123,
			"count":1344,
			"type":"SCALAR"
		},
		{
			"bufferView":24,
			"componentType":5126,
			"count":260,
			"max":[
				0.8000000715255737,
				0.9534707069396973,
				0.024999994784593582
			],
			"min":[
				5.86757771259272e-08,
				-1.0465292930603027,
				-0.025000037625432014
			],
			"type":"VEC3"
		},
		{
			"bufferView":25,
			"componentType":5126,
			"count":260,
			"type":"VEC3"
		},
		{
			"bufferView":26,
			"componentType":5126,
			"count":260,
			"type":"VEC2"
		},
		{
			"bufferView":27,
			"componentType":5123,
			"count":1200,
			"type":"SCALAR"
		},
		{
			"bufferView":28,
			"componentType":5126,
			"count":4,
			"max":[
				0.4358677864074707,
				2.033978223800659,
				2.9802322387695312e-08
			],
			"min":[
				-0.4358677864074707,
				1.1920928955078125e-07,
				-1.4901161193847656e-08
			],
			"type":"VEC3"
		},
		{
			"bufferView":29,
			"componentType":5126,
			"count":4,
			"type":"VEC3"
		},
		{
			"bufferView":30,
			"componentType":5123,
			"count":6,
			"type":"SCALAR"
		},
		{
			"bufferView":31,
			"componentType":5126,
			"count":61,
			"max":[
				1
			],
			"min":[
				0
			],
			"type":"SCALAR"
		},
		{
			"bufferView":32,
			"componentType":5126,
			"count":61,
			"type":"VEC4"
		}
	],
	"bufferViews":[
		{
			"buffer":0,
			"byteLength":960,
			"byteOffset":0,
			"target":34962
		},
		{
			"buffer":0,
			"byteLength":960,
			"byteOffset":960,
			"target":34962
		},
		{
			"buffer":0,
			"byteLength":640,
			"byteOffset":1920,
			"target":34962
		},
		{
			"buffer":0,
			"byteLength":684,
			"byteOffset":2560,
			"target":34963
		},
		{
			"buffer":0,
			"byteLength":1824,
			"byteOffset":3244,
			"target":34962
		},
		{
			"buffer":0,
			"byteLength":1824,
			"byteOffset":5068,
			"target":34962
		},
		{
			"buffer":0,
			"byteLength":1216,
			"byteOffset":6892,
			"target":34962
		},
		{
			"buffer":0,
			"byteLength":1296,
			"byteOffset":8108,
			"target":34963
		},
		{
			"buffer":0,
			"byteLength":1392,
			"byteOffset":9404,
			"target":34962
		},
		{
			"buffer":0,
			"byteLength":1392,
			"byteOffset":10796,
			"target":34962
		},
		{
			"buffer":0,
			"byteLength":928,
			"byteOffset":12188,
			"target":34962
		},
		{
			"buffer":0,
			"byteLength":768,
			"byteOffset":13116,
			"target":34963
		},
		{
			"buffer":0,
			"byteLength":2448,
			"byteOffset":13884,
			"target":34962
		},
		{
			"buffer":0,
			"byteLength":2448,
			"byteOffset":16332,
			"target":34962
		},
		{
			"buffer":0,
			"byteLength":1632,
			"byteOffset":18780,
			"target":34962
		},
		{
			"buffer":0,
			"byteLength":1920,
			"byteOffset":20412,
			"target":34963
		},
		{
			"buffer":0,
			"byteLength":1176,
			"byteOffset":22332,
			"target":34962
		},
		{
			"buffer":0,
			"byteLength":1176,
			"byteOffset":23508,
			"target":34962
		},
		{
			"buffer":0,
			"byteLength":784,
			"byteOffset":24684,
			"target":34962
		},
		{
			"buffer":0,
			"byteLength":960,
			"byteOffset":25468,
			"target":34963
		},
		{
			"buffer":0,
			"byteLength":3264,
			"byteOffset":26428,
			"target":34962
		},
		{
			"buffer":0,
			"byteLength":3264,
			"byteOffset":29692,
			"target":34962
		},
		{
			"buffer":0,
			"byteLength":2176,
			"byteOffset":32956,
			"target":34962
		},
		{
			"buffer":0,
			"byteLength":2688,
			"byteOffset":35132,
			"target":34963
		},
		{
			"buffer":0,
			"byteLength":3120,
			"byteOffset":37820,
			"target":34962
		},
		{
			"buffer":0,
			"byteLength":3120,
			"byteOffset":40940,
			"target":34962
		},
		{
			"buffer":0,
			"byteLength":2080,
			"byteOffset":44060,
			"target":34962
		},
		{
			"buffer":0,
			"byteLength":2400,
			"byteOffset":46140,
			"target":34963
		},
		{
			"buffer":0,
			"byteLength":48,
			"byteOffset":48540,
			"target":34962
		},
		{
			"buffer":0,
			"byteLength":48,
			"byteOffset":48588,
			"target":34962
		},
		{
			"buffer":0,
			"byteLength":12,
			"byteOffset":48636,
			"target":34963
		},
		{
			"buffer":0,
			"byteLength":244,
			"byteOffset":48648
		},
		{
			"buffer":0,
			"byteLength":976,
			"byteOffset":48892
		}
	],
	"samplers":[
		{
			"magFilter":9729,
			"minFilter":9987
		}
	],
	"buffers":[
		{
			"byteLength":49868,
			"uri":"classic_door.bin"
		}
	]
}
