{
	"asset":{
		"copyright":"Yara Gardaria",
		"generator":"Khronos glTF Blender I/O v4.0.44",
		"version":"2.0"
	},
	"scene":0,
	"scenes":[
		{
			"name":"Scene",
			"nodes":[
				0,
				1,
				2,
				3
			]
		}
	],
	"nodes":[
		{
			"mesh":0,
			"name":"Architrave 1",
			"translation":[
				0,
				0.9999999403953552,
				0
			]
		},
		{
			"mesh":1,
			"name":"Architrave 2",
			"translation":[
				0,
				0.9999999403953552,
				0
			]
		},
		{
			"mesh":2,
			"name":"Door frame",
			"translation":[
				0,
				0.9999999403953552,
				0
			]
		},
		{
			"mesh":3,
			"name":"Door leaf",
			"translation":[
				-0.40000006556510925,
				1.0465294122695923,
				-0.049999088048934937
			]
		}
	],
	"animations":[
		{
			"channels":[
				{
					"sampler":0,
					"target":{
						"node":3,
						"path":"rotation"
					}
				}
			],
			"name":"Open",
			"samplers":[
				{
					"input":16,
					"interpolation":"LINEAR",
					"output":17
				}
			]
		}
	],
	"materials":[
		{
			"doubleSided":true,
			"name":"Classic door",
			"normalTexture":{
				"index":0
			},
			"pbrMetallicRoughness":{
				"baseColorTexture":{
					"index":1
				},
				"metallicRoughnessTexture":{
					"index":2
				}
			}
		}
	],
	"meshes":[
		{
			"name":"Architrave 1",
			"primitives":[
				{
					"attributes":{
						"POSITION":0,
						"NORMAL":1,
						"TEXCOORD_0":2
					},
					"indices":3,
					"material":0
				}
			]
		},
		{
			"name":"Architrave 2",
			"primitives":[
				{
					"attributes":{
						"POSITION":4,
						"NORMAL":5,
						"TEXCOORD_0":6
					},
					"indices":7,
					"material":0
				}
			]
		},
		{
			"name":"Door frame",
			"primitives":[
				{
					"attributes":{
						"POSITION":8,
						"NORMAL":9,
						"TEXCOORD_0":10
					},
					"indices":11,
					"material":0
				}
			]
		},
		{
			"name":"Door leaf",
			"primitives":[
				{
					"attributes":{
						"POSITION":12,
						"NORMAL":13,
						"TEXCOORD_0":14
					},
					"indices":15,
					"material":0
				}
			]
		}
	],
	"textures":[
		{
			"sampler":0,
			"source":0
		},
		{
			"sampler":0,
			"source":1
		},
		{
			"sampler":0,
			"source":2
		}
	],
	"images":[
		{
			"mimeType":"image/png",
			"name":"classic_door_normal",
			"uri":"classic_door_normal.png"
		},
		{
			"mimeType":"image/png",
			"name":"classic_door_base_color",
			"uri":"classic_door_base_color.png"
		},
		{
			"mimeType":"image/png",
			"name":"classic_door_metallic_roughness",
			"uri":"classic_door_metallic_roughness.png"
		}
	],
	"accessors":[
		{
			"bufferView":0,
			"componentType":5126,
			"count":80,
			"max":[
				0.49794140458106995,
				1.100000023841858,
				0.09679985791444778
			],
			"min":[
				-0.49794140458106995,
				1.0122226476669312,
				-0.09679985791444778
			],
			"type":"VEC3"
		},
		{
			"bufferView":1,
			"componentType":5126,
			"count":80,
			"type":"VEC3"
		},
		{
			"bufferView":2,
			"componentType":5126,
			"count":80,
			"type":"VEC2"
		},
		{
			"bufferView":3,
			"componentType":5123,
			"count":342,
			"type":"SCALAR"
		},
		{
			"bufferView":4,
			"componentType":5126,
			"count":152,
			"max":[
				0.5,
				1.097873568534851,
				0.09644372761249542
			],
			"min":[
				-0.5,
				-0.998755156993866,
				-0.09644372761249542
			],
			"type":"VEC3"
		},
		{
			"bufferView":5,
			"componentType":5126,
			"count":152,
			"type":"VEC3"
		},
		{
			"bufferView":6,
			"componentType":5126,
			"count":152,
			"type":"VEC2"
		},
		{
			"bufferView":7,
			"componentType":5123,
			"count":648,
			"type":"SCALAR"
		},
		{
			"bufferView":8,
			"componentType":5126,
			"count":116,
			"max":[
				0.4358677864074707,
				1.0351918935775757,
				0.07500002533197403
			],
			"min":[
				-0.4358677864074707,
				-0.998786211013794,
				-0.07500002533197403
			],
			"type":"VEC3"
		},
		{
			"bufferView":9,
			"componentType":5126,
			"count":116,
			"type":"VEC3"
		},
		{
			"bufferView":10,
			"componentType":5126,
			"count":116,
			"type":"VEC2"
		},
		{
			"bufferView":11,
			"componentType":5123,
			"count":384,
			"type":"SCALAR"
		},
		{
			"bufferView":12,
			"componentType":5126,
			"count":260,
			"max":[
				0.8000000715255737,
				0.9534707069396973,
				0.024999994784593582
			],
			"min":[
				5.86757771259272e-08,
				-1.0465292930603027,
				-0.025000037625432014
			],
			"type":"VEC3"
		},
		{
			"bufferView":13,
			"componentType":5126,
			"count":260,
			"type":"VEC3"
		},
		{
			"bufferView":14,
			"componentType":5126,
			"count":260,
			"type":"VEC2"
		},
		{
			"bufferView":15,
			"componentType":5123,
			"count":1200,
			"type":"SCALAR"
		},
		{
			"bufferView":16,
			"componentType":5126,
			"count":61,
			"max":[
				1
			],
			"min":[
				0
			],
			"type":"SCALAR"
		},
		{
			"bufferView":17,
			"componentType":5126,
			"count":61,
			"type":"VEC4"
		}
	],
	"bufferViews":[
		{
			"buffer":0,
			"byteLength":960,
			"byteOffset":0,
			"target":34962
		},
		{
			"buffer":0,
			"byteLength":960,
			"byteOffset":960,
			"target":34962
		},
		{
			"buffer":0,
			"byteLength":640,
			"byteOffset":1920,
			"target":34962
		},
		{
			"buffer":0,
			"byteLength":684,
			"byteOffset":2560,
			"target":34963
		},
		{
			"buffer":0,
			"byteLength":1824,
			"byteOffset":3244,
			"target":34962
		},
		{
			"buffer":0,
			"byteLength":1824,
			"byteOffset":5068,
			"target":34962
		},
		{
			"buffer":0,
			"byteLength":1216,
			"byteOffset":6892,
			"target":34962
		},
		{
			"buffer":0,
			"byteLength":1296,
			"byteOffset":8108,
			"target":34963
		},
		{
			"buffer":0,
			"byteLength":1392,
			"byteOffset":9404,
			"target":34962
		},
		{
			"buffer":0,
			"byteLength":1392,
			"byteOffset":10796,
			"target":34962
		},
		{
			"buffer":0,
			"byteLength":928,
			"byteOffset":12188,
			"target":34962
		},
		{
			"buffer":0,
			"byteLength":768,
			"byteOffset":13116,
			"target":34963
		},
		{
			"buffer":0,
			"byteLength":3120,
			"byteOffset":13884,
			"target":34962
		},
		{
			"buffer":0,
			"byteLength":3120,
			"byteOffset":17004,
			"target":34962
		},
		{
			"buffer":0,
			"byteLength":2080,
			"byteOffset":20124,
			"target":34962
		},
		{
			"buffer":0,
			"byteLength":2400,
			"byteOffset":22204,
			"target":34963
		},
		{
			"buffer":0,
			"byteLength":244,
			"byteOffset":24604
		},
		{
			"buffer":0,
			"byteLength":976,
			"byteOffset":24848
		}
	],
	"samplers":[
		{
			"magFilter":9729,
			"minFilter":9987
		}
	],
	"buffers":[
		{
			"byteLength":25824,
			"uri":"classic_door.bin"
		}
	]
}
