{
	"asset":{
		"copyright":"Irina Chernyshchuk",
		"generator":"Khronos glTF Blender I/O v4.1.63",
		"version":"2.0"
	},
	"extensionsUsed":[
		"KHR_materials_specular"
	],
	"scene":0,
	"scenes":[
		{
			"name":"Scene",
			"nodes":[
				0,
				1,
				2,
				3,
				4,
				5
			]
		}
	],
	"nodes":[
		{
			"mesh":0,
			"name":"Sand"
		},
		{
			"mesh":1,
			"name":"Pipe"
		},
		{
			"mesh":2,
			"name":"Canopy",
			"translation":[
				0,
				2.2617247104644775,
				0
			]
		},
		{
			"mesh":3,
			"name":"Fastenings",
			"translation":[
				0,
				1.7465412616729736,
				0
			]
		},
		{
			"mesh":4,
			"name":"Base"
		},
		{
			"mesh":5,
			"name":"Wood"
		}
	],
	"materials":[
		{
			"extensions":{
				"KHR_materials_specular":{
					"specularFactor":0
				}
			},
			"name":"Sanbox",
			"normalTexture":{
				"index":0
			},
			"pbrMetallicRoughness":{
				"baseColorTexture":{
					"index":1
				},
				"metallicRoughnessTexture":{
					"index":2
				}
			}
		}
	],
	"meshes":[
		{
			"name":"Sand",
			"primitives":[
				{
					"attributes":{
						"POSITION":0,
						"NORMAL":1,
						"TEXCOORD_0":2
					},
					"indices":3,
					"material":0
				}
			]
		},
		{
			"name":"Pipe",
			"primitives":[
				{
					"attributes":{
						"POSITION":4,
						"NORMAL":5,
						"TEXCOORD_0":6
					},
					"indices":7,
					"material":0
				}
			]
		},
		{
			"name":"Canopy",
			"primitives":[
				{
					"attributes":{
						"POSITION":8,
						"NORMAL":9,
						"TEXCOORD_0":10
					},
					"indices":11,
					"material":0
				}
			]
		},
		{
			"name":"Fastenings",
			"primitives":[
				{
					"attributes":{
						"POSITION":12,
						"NORMAL":13,
						"TEXCOORD_0":14
					},
					"indices":15,
					"material":0
				}
			]
		},
		{
			"name":"Base",
			"primitives":[
				{
					"attributes":{
						"POSITION":16,
						"NORMAL":17,
						"TEXCOORD_0":18
					},
					"indices":19,
					"material":0
				}
			]
		},
		{
			"name":"Wood",
			"primitives":[
				{
					"attributes":{
						"POSITION":20,
						"NORMAL":21,
						"TEXCOORD_0":22
					},
					"indices":23,
					"material":0
				}
			]
		}
	],
	"textures":[
		{
			"sampler":0,
			"source":0
		},
		{
			"sampler":0,
			"source":1
		},
		{
			"sampler":0,
			"source":2
		}
	],
	"images":[
		{
			"mimeType":"image/png",
			"name":"sandbox_normal",
			"uri":"sandbox_normal.png"
		},
		{
			"mimeType":"image/png",
			"name":"sandbox_base_color",
			"uri":"sandbox_base_color.png"
		},
		{
			"mimeType":"image/png",
			"name":"sandbox_metallic_roughness",
			"uri":"sandbox_metallic_roughness.png"
		}
	],
	"accessors":[
		{
			"bufferView":0,
			"componentType":5126,
			"count":1089,
			"max":[
				1.252251386642456,
				0.3899499177932739,
				1.252251386642456
			],
			"min":[
				-1.252251386642456,
				0.28166067600250244,
				-1.252251386642456
			],
			"type":"VEC3"
		},
		{
			"bufferView":1,
			"componentType":5126,
			"count":1089,
			"type":"VEC3"
		},
		{
			"bufferView":2,
			"componentType":5126,
			"count":1089,
			"type":"VEC2"
		},
		{
			"bufferView":3,
			"componentType":5123,
			"count":6144,
			"type":"SCALAR"
		},
		{
			"bufferView":4,
			"componentType":5126,
			"count":18,
			"max":[
				0.03745822235941887,
				2.34342885017395,
				0.03745822608470917
			],
			"min":[
				-0.03745822608470917,
				0.28290697932243347,
				-0.03745822235941887
			],
			"type":"VEC3"
		},
		{
			"bufferView":5,
			"componentType":5126,
			"count":18,
			"type":"VEC3"
		},
		{
			"bufferView":6,
			"componentType":5126,
			"count":18,
			"type":"VEC2"
		},
		{
			"bufferView":7,
			"componentType":5123,
			"count":48,
			"type":"SCALAR"
		},
		{
			"bufferView":8,
			"componentType":5126,
			"count":200,
			"max":[
				0.8771785497665405,
				0.1994447410106659,
				0.8771785497665405
			],
			"min":[
				-0.8771785497665405,
				-0.5135725736618042,
				-0.8771785497665405
			],
			"type":"VEC3"
		},
		{
			"bufferView":9,
			"componentType":5126,
			"count":200,
			"type":"VEC3"
		},
		{
			"bufferView":10,
			"componentType":5126,
			"count":200,
			"type":"VEC2"
		},
		{
			"bufferView":11,
			"componentType":5123,
			"count":768,
			"type":"SCALAR"
		},
		{
			"bufferView":12,
			"componentType":5126,
			"count":72,
			"max":[
				0.8124210238456726,
				0.07232559472322464,
				0.7132634520530701
			],
			"min":[
				-0.8124499917030334,
				0.040302399545907974,
				-0.7125692963600159
			],
			"type":"VEC3"
		},
		{
			"bufferView":13,
			"componentType":5126,
			"count":72,
			"type":"VEC3"
		},
		{
			"bufferView":14,
			"componentType":5126,
			"count":72,
			"type":"VEC2"
		},
		{
			"bufferView":15,
			"componentType":5123,
			"count":108,
			"type":"SCALAR"
		},
		{
			"bufferView":16,
			"componentType":5126,
			"count":32,
			"max":[
				1.3523142337799072,
				0.39258524775505066,
				1.3523142337799072
			],
			"min":[
				-1.3523142337799072,
				0,
				-1.3523142337799072
			],
			"type":"VEC3"
		},
		{
			"bufferView":17,
			"componentType":5126,
			"count":32,
			"type":"VEC3"
		},
		{
			"bufferView":18,
			"componentType":5126,
			"count":32,
			"type":"VEC2"
		},
		{
			"bufferView":19,
			"componentType":5123,
			"count":48,
			"type":"SCALAR"
		},
		{
			"bufferView":20,
			"componentType":5126,
			"count":56,
			"max":[
				1.401840090751648,
				0.43173128366470337,
				1.401840090751648
			],
			"min":[
				-1.401840090751648,
				0.39258524775505066,
				-1.4019815921783447
			],
			"type":"VEC3"
		},
		{
			"bufferView":21,
			"componentType":5126,
			"count":56,
			"type":"VEC3"
		},
		{
			"bufferView":22,
			"componentType":5126,
			"count":56,
			"type":"VEC2"
		},
		{
			"bufferView":23,
			"componentType":5123,
			"count":96,
			"type":"SCALAR"
		}
	],
	"bufferViews":[
		{
			"buffer":0,
			"byteLength":13068,
			"byteOffset":0,
			"target":34962
		},
		{
			"buffer":0,
			"byteLength":13068,
			"byteOffset":13068,
			"target":34962
		},
		{
			"buffer":0,
			"byteLength":8712,
			"byteOffset":26136,
			"target":34962
		},
		{
			"buffer":0,
			"byteLength":12288,
			"byteOffset":34848,
			"target":34963
		},
		{
			"buffer":0,
			"byteLength":216,
			"byteOffset":47136,
			"target":34962
		},
		{
			"buffer":0,
			"byteLength":216,
			"byteOffset":47352,
			"target":34962
		},
		{
			"buffer":0,
			"byteLength":144,
			"byteOffset":47568,
			"target":34962
		},
		{
			"buffer":0,
			"byteLength":96,
			"byteOffset":47712,
			"target":34963
		},
		{
			"buffer":0,
			"byteLength":2400,
			"byteOffset":47808,
			"target":34962
		},
		{
			"buffer":0,
			"byteLength":2400,
			"byteOffset":50208,
			"target":34962
		},
		{
			"buffer":0,
			"byteLength":1600,
			"byteOffset":52608,
			"target":34962
		},
		{
			"buffer":0,
			"byteLength":1536,
			"byteOffset":54208,
			"target":34963
		},
		{
			"buffer":0,
			"byteLength":864,
			"byteOffset":55744,
			"target":34962
		},
		{
			"buffer":0,
			"byteLength":864,
			"byteOffset":56608,
			"target":34962
		},
		{
			"buffer":0,
			"byteLength":576,
			"byteOffset":57472,
			"target":34962
		},
		{
			"buffer":0,
			"byteLength":216,
			"byteOffset":58048,
			"target":34963
		},
		{
			"buffer":0,
			"byteLength":384,
			"byteOffset":58264,
			"target":34962
		},
		{
			"buffer":0,
			"byteLength":384,
			"byteOffset":58648,
			"target":34962
		},
		{
			"buffer":0,
			"byteLength":256,
			"byteOffset":59032,
			"target":34962
		},
		{
			"buffer":0,
			"byteLength":96,
			"byteOffset":59288,
			"target":34963
		},
		{
			"buffer":0,
			"byteLength":672,
			"byteOffset":59384,
			"target":34962
		},
		{
			"buffer":0,
			"byteLength":672,
			"byteOffset":60056,
			"target":34962
		},
		{
			"buffer":0,
			"byteLength":448,
			"byteOffset":60728,
			"target":34962
		},
		{
			"buffer":0,
			"byteLength":192,
			"byteOffset":61176,
			"target":34963
		}
	],
	"samplers":[
		{
			"magFilter":9729,
			"minFilter":9987
		}
	],
	"buffers":[
		{
			"byteLength":61368,
			"uri":"sandbox.bin"
		}
	]
}
