{
	"asset":{
		"copyright":"Irina Chernyshchuk",
		"generator":"Khronos glTF Blender I/O v4.1.63",
		"version":"2.0"
	},
	"scene":0,
	"scenes":[
		{
			"name":"Scene",
			"nodes":[
				0
			]
		}
	],
	"nodes":[
		{
			"mesh":0,
			"name":"ladder"
		}
	],
	"materials":[
		{
			"doubleSided":true,
			"name":"ladder",
			"normalTexture":{
				"index":0
			},
			"pbrMetallicRoughness":{
				"baseColorTexture":{
					"index":1
				},
				"metallicRoughnessTexture":{
					"index":2
				}
			}
		}
	],
	"meshes":[
		{
			"name":"ladder",
			"primitives":[
				{
					"attributes":{
						"POSITION":0,
						"NORMAL":1,
						"TEXCOORD_0":2
					},
					"indices":3,
					"material":0
				},
				{
					"attributes":{
						"POSITION":4,
						"NORMAL":5,
						"TEXCOORD_0":6
					},
					"indices":7,
					"material":0
				}
			]
		}
	],
	"textures":[
		{
			"sampler":0,
			"source":0
		},
		{
			"sampler":0,
			"source":1
		},
		{
			"sampler":0,
			"source":2
		}
	],
	"images":[
		{
			"mimeType":"image/png",
			"name":"ladder_normal",
			"uri":"ladder_normal.png"
		},
		{
			"mimeType":"image/png",
			"name":"ladder_base_color",
			"uri":"ladder_base_color.png"
		},
		{
			"mimeType":"image/png",
			"name":"ladder_metallic_roughness",
			"uri":"ladder_metallic_roughness.png"
		}
	],
	"accessors":[
		{
			"bufferView":0,
			"componentType":5126,
			"count":1304,
			"max":[
				1.5428950786590576,
				1.6273126602172852,
				0.3578948974609375
			],
			"min":[
				-1.5428950786590576,
				0.00012123584747314453,
				-0.3578948974609375
			],
			"type":"VEC3"
		},
		{
			"bufferView":1,
			"componentType":5126,
			"count":1304,
			"type":"VEC3"
		},
		{
			"bufferView":2,
			"componentType":5126,
			"count":1304,
			"type":"VEC2"
		},
		{
			"bufferView":3,
			"componentType":5123,
			"count":6060,
			"type":"SCALAR"
		},
		{
			"bufferView":4,
			"componentType":5126,
			"count":864,
			"max":[
				1.538124918937683,
				1.6231249570846558,
				0.32224515080451965
			],
			"min":[
				-1.538124918937683,
				0.17150336503982544,
				-0.32224515080451965
			],
			"type":"VEC3"
		},
		{
			"bufferView":5,
			"componentType":5126,
			"count":864,
			"type":"VEC3"
		},
		{
			"bufferView":6,
			"componentType":5126,
			"count":864,
			"type":"VEC2"
		},
		{
			"bufferView":7,
			"componentType":5123,
			"count":3456,
			"type":"SCALAR"
		}
	],
	"bufferViews":[
		{
			"buffer":0,
			"byteLength":15648,
			"byteOffset":0,
			"target":34962
		},
		{
			"buffer":0,
			"byteLength":15648,
			"byteOffset":15648,
			"target":34962
		},
		{
			"buffer":0,
			"byteLength":10432,
			"byteOffset":31296,
			"target":34962
		},
		{
			"buffer":0,
			"byteLength":12120,
			"byteOffset":41728,
			"target":34963
		},
		{
			"buffer":0,
			"byteLength":10368,
			"byteOffset":53848,
			"target":34962
		},
		{
			"buffer":0,
			"byteLength":10368,
			"byteOffset":64216,
			"target":34962
		},
		{
			"buffer":0,
			"byteLength":6912,
			"byteOffset":74584,
			"target":34962
		},
		{
			"buffer":0,
			"byteLength":6912,
			"byteOffset":81496,
			"target":34963
		}
	],
	"samplers":[
		{
			"magFilter":9729,
			"minFilter":9987
		}
	],
	"buffers":[
		{
			"byteLength":88408,
			"uri":"childrens_ladder.bin"
		}
	]
}
