{
	"asset":{
		"copyright":"Yara Gardaria",
		"generator":"Khronos glTF Blender I/O v4.1.63",
		"version":"2.0"
	},
	"extensionsUsed":[
		"KHR_materials_specular"
	],
	"scene":0,
	"scenes":[
		{
			"name":"Scene",
			"nodes":[
				0,
				1
			]
		}
	],
	"nodes":[
		{
			"mesh":0,
			"name":"Slide",
			"translation":[
				0,
				-0.005347344558686018,
				0
			]
		},
		{
			"mesh":1,
			"name":"Basis",
			"translation":[
				0,
				-0.005347344558686018,
				0
			]
		}
	],
	"materials":[
		{
			"extensions":{
				"KHR_materials_specular":{
					"specularFactor":0
				}
			},
			"name":"Slide",
			"normalTexture":{
				"index":0
			},
			"pbrMetallicRoughness":{
				"baseColorTexture":{
					"index":1
				},
				"metallicRoughnessTexture":{
					"index":2
				}
			}
		}
	],
	"meshes":[
		{
			"name":"Slide",
			"primitives":[
				{
					"attributes":{
						"POSITION":0,
						"NORMAL":1,
						"TEXCOORD_0":2
					},
					"indices":3,
					"material":0
				}
			]
		},
		{
			"name":"Basis",
			"primitives":[
				{
					"attributes":{
						"POSITION":4,
						"NORMAL":5,
						"TEXCOORD_0":6
					},
					"indices":7,
					"material":0
				},
				{
					"attributes":{
						"POSITION":8,
						"NORMAL":9,
						"TEXCOORD_0":10
					},
					"indices":11,
					"material":0
				}
			]
		}
	],
	"textures":[
		{
			"sampler":0,
			"source":0
		},
		{
			"sampler":0,
			"source":1
		},
		{
			"sampler":0,
			"source":2
		}
	],
	"images":[
		{
			"mimeType":"image/png",
			"name":"slide_normal",
			"uri":"slide_normal.png"
		},
		{
			"mimeType":"image/png",
			"name":"slide_base_color",
			"uri":"slide_base_color.png"
		},
		{
			"mimeType":"image/png",
			"name":"slide_metallic_roughness",
			"uri":"slide_metallic_roughness.png"
		}
	],
	"accessors":[
		{
			"bufferView":0,
			"componentType":5126,
			"count":68,
			"max":[
				0.30000001192092896,
				1.4757355451583862,
				1.2239174842834473
			],
			"min":[
				-0.30000001192092896,
				0.002988811582326889,
				-1.738881230354309
			],
			"type":"VEC3"
		},
		{
			"bufferView":1,
			"componentType":5126,
			"count":68,
			"type":"VEC3"
		},
		{
			"bufferView":2,
			"componentType":5126,
			"count":68,
			"type":"VEC2"
		},
		{
			"bufferView":3,
			"componentType":5123,
			"count":180,
			"type":"SCALAR"
		},
		{
			"bufferView":4,
			"componentType":5126,
			"count":940,
			"max":[
				0.32999545335769653,
				2.049745559692383,
				1.6293305158615112
			],
			"min":[
				-0.32999545335769653,
				0.005221707280725241,
				0.3870886266231537
			],
			"type":"VEC3"
		},
		{
			"bufferView":5,
			"componentType":5126,
			"count":940,
			"type":"VEC3"
		},
		{
			"bufferView":6,
			"componentType":5126,
			"count":940,
			"type":"VEC2"
		},
		{
			"bufferView":7,
			"componentType":5123,
			"count":4488,
			"type":"SCALAR"
		},
		{
			"bufferView":8,
			"componentType":5126,
			"count":1038,
			"max":[
				0.3250252902507782,
				1.4989144802093506,
				1.5741833448410034
			],
			"min":[
				-0.3250252902507782,
				-0.0043917386792600155,
				-1.7450120449066162
			],
			"type":"VEC3"
		},
		{
			"bufferView":9,
			"componentType":5126,
			"count":1038,
			"type":"VEC3"
		},
		{
			"bufferView":10,
			"componentType":5126,
			"count":1038,
			"type":"VEC2"
		},
		{
			"bufferView":11,
			"componentType":5123,
			"count":4908,
			"type":"SCALAR"
		}
	],
	"bufferViews":[
		{
			"buffer":0,
			"byteLength":816,
			"byteOffset":0,
			"target":34962
		},
		{
			"buffer":0,
			"byteLength":816,
			"byteOffset":816,
			"target":34962
		},
		{
			"buffer":0,
			"byteLength":544,
			"byteOffset":1632,
			"target":34962
		},
		{
			"buffer":0,
			"byteLength":360,
			"byteOffset":2176,
			"target":34963
		},
		{
			"buffer":0,
			"byteLength":11280,
			"byteOffset":2536,
			"target":34962
		},
		{
			"buffer":0,
			"byteLength":11280,
			"byteOffset":13816,
			"target":34962
		},
		{
			"buffer":0,
			"byteLength":7520,
			"byteOffset":25096,
			"target":34962
		},
		{
			"buffer":0,
			"byteLength":8976,
			"byteOffset":32616,
			"target":34963
		},
		{
			"buffer":0,
			"byteLength":12456,
			"byteOffset":41592,
			"target":34962
		},
		{
			"buffer":0,
			"byteLength":12456,
			"byteOffset":54048,
			"target":34962
		},
		{
			"buffer":0,
			"byteLength":8304,
			"byteOffset":66504,
			"target":34962
		},
		{
			"buffer":0,
			"byteLength":9816,
			"byteOffset":74808,
			"target":34963
		}
	],
	"samplers":[
		{
			"magFilter":9729,
			"minFilter":9987
		}
	],
	"buffers":[
		{
			"byteLength":84624,
			"uri":"slide.bin"
		}
	]
}
