{
	"asset":{
		"copyright":"Yara Gardaria",
		"generator":"Khronos glTF Blender I/O v4.1.63",
		"version":"2.0"
	},
	"extensionsUsed":[
		"KHR_materials_specular"
	],
	"scene":0,
	"scenes":[
		{
			"name":"Scene",
			"nodes":[
				3,
				4
			]
		}
	],
	"nodes":[
		{
			"mesh":0,
			"name":"Rubber",
			"translation":[
				1.1195931434631348,
				-0.01190531998872757,
				0
			]
		},
		{
			"mesh":1,
			"name":"Seat",
			"translation":[
				1.1195931434631348,
				0.0707990974187851,
				0
			]
		},
		{
			"mesh":2,
			"name":"Wood",
			"translation":[
				0,
				0.07812011986970901,
				0
			]
		},
		{
			"children":[
				0,
				1,
				2
			],
			"mesh":3,
			"name":"Fastening",
			"rotation":[
				0,
				0,
				-0.14360274374485016,
				0.9896354675292969
			],
			"translation":[
				0,
				0.39699673652648926,
				0
			]
		},
		{
			"mesh":4,
			"name":"Base"
		}
	],
	"materials":[
		{
			"extensions":{
				"KHR_materials_specular":{
					"specularFactor":0
				}
			},
			"name":"Swing-balancer",
			"normalTexture":{
				"index":0
			},
			"pbrMetallicRoughness":{
				"baseColorTexture":{
					"index":1
				},
				"metallicRoughnessTexture":{
					"index":2
				}
			}
		}
	],
	"meshes":[
		{
			"name":"Rubber",
			"primitives":[
				{
					"attributes":{
						"POSITION":0,
						"NORMAL":1,
						"TEXCOORD_0":2
					},
					"indices":3,
					"material":0
				}
			]
		},
		{
			"name":"Seat",
			"primitives":[
				{
					"attributes":{
						"POSITION":4,
						"NORMAL":5,
						"TEXCOORD_0":6
					},
					"indices":7,
					"material":0
				}
			]
		},
		{
			"name":"Wood",
			"primitives":[
				{
					"attributes":{
						"POSITION":8,
						"NORMAL":9,
						"TEXCOORD_0":10
					},
					"indices":11,
					"material":0
				}
			]
		},
		{
			"name":"Fastening",
			"primitives":[
				{
					"attributes":{
						"POSITION":12,
						"NORMAL":13,
						"TEXCOORD_0":14
					},
					"indices":15,
					"material":0
				},
				{
					"attributes":{
						"POSITION":16,
						"NORMAL":17,
						"TEXCOORD_0":18
					},
					"indices":19,
					"material":0
				}
			]
		},
		{
			"name":"Base",
			"primitives":[
				{
					"attributes":{
						"POSITION":20,
						"NORMAL":21,
						"TEXCOORD_0":22
					},
					"indices":23,
					"material":0
				},
				{
					"attributes":{
						"POSITION":24,
						"NORMAL":25,
						"TEXCOORD_0":26
					},
					"indices":27,
					"material":0
				}
			]
		}
	],
	"textures":[
		{
			"sampler":0,
			"source":0
		},
		{
			"sampler":0,
			"source":1
		},
		{
			"sampler":0,
			"source":2
		}
	],
	"images":[
		{
			"mimeType":"image/png",
			"name":"swing_balancer_normal",
			"uri":"swing_balancer_normal.png"
		},
		{
			"mimeType":"image/png",
			"name":"swing_balancer_base_color",
			"uri":"swing_balancer_base_color.png"
		},
		{
			"mimeType":"image/png",
			"name":"swing_balancer_metallic_roughness",
			"uri":"swing_balancer_metallic_roughness.png"
		}
	],
	"accessors":[
		{
			"bufferView":0,
			"componentType":5126,
			"count":402,
			"max":[
				0.09500003606081009,
				0.08993741124868393,
				0.057267069816589355
			],
			"min":[
				-2.334186315536499,
				-0.03966137394309044,
				-0.057267069816589355
			],
			"type":"VEC3"
		},
		{
			"bufferView":1,
			"componentType":5126,
			"count":402,
			"type":"VEC3"
		},
		{
			"bufferView":2,
			"componentType":5126,
			"count":402,
			"type":"VEC2"
		},
		{
			"bufferView":3,
			"componentType":5123,
			"count":1560,
			"type":"SCALAR"
		},
		{
			"bufferView":4,
			"componentType":5126,
			"count":80,
			"max":[
				0.07307682931423187,
				0.007262888364493847,
				0.07307682931423187
			],
			"min":[
				-2.312263011932373,
				0,
				-0.07307682931423187
			],
			"type":"VEC3"
		},
		{
			"bufferView":5,
			"componentType":5126,
			"count":80,
			"type":"VEC3"
		},
		{
			"bufferView":6,
			"componentType":5126,
			"count":80,
			"type":"VEC2"
		},
		{
			"bufferView":7,
			"componentType":5123,
			"count":120,
			"type":"SCALAR"
		},
		{
			"bufferView":8,
			"componentType":5126,
			"count":268,
			"max":[
				1.2500001192092896,
				0.020208243280649185,
				0.10000000149011612
			],
			"min":[
				-1.2500001192092896,
				0,
				-0.10000000149011612
			],
			"type":"VEC3"
		},
		{
			"bufferView":9,
			"componentType":5126,
			"count":268,
			"type":"VEC3"
		},
		{
			"bufferView":10,
			"componentType":5126,
			"count":268,
			"type":"VEC2"
		},
		{
			"bufferView":11,
			"componentType":5123,
			"count":1032,
			"type":"SCALAR"
		},
		{
			"bufferView":12,
			"componentType":5126,
			"count":218,
			"max":[
				1.2489897012710571,
				0.07069753855466843,
				0.03066500462591648
			],
			"min":[
				-1.2489897012710571,
				0.016904478892683983,
				-0.03066500462591648
			],
			"type":"VEC3"
		},
		{
			"bufferView":13,
			"componentType":5126,
			"count":218,
			"type":"VEC3"
		},
		{
			"bufferView":14,
			"componentType":5126,
			"count":218,
			"type":"VEC2"
		},
		{
			"bufferView":15,
			"componentType":5123,
			"count":960,
			"type":"SCALAR"
		},
		{
			"bufferView":16,
			"componentType":5126,
			"count":502,
			"max":[
				0.8247842788696289,
				0.31417280435562134,
				0.13200461864471436
			],
			"min":[
				-0.8247842788696289,
				-0.026841595768928528,
				-0.13200461864471436
			],
			"type":"VEC3"
		},
		{
			"bufferView":17,
			"componentType":5126,
			"count":502,
			"type":"VEC3"
		},
		{
			"bufferView":18,
			"componentType":5126,
			"count":502,
			"type":"VEC2"
		},
		{
			"bufferView":19,
			"componentType":5123,
			"count":2016,
			"type":"SCALAR"
		},
		{
			"bufferView":20,
			"componentType":5126,
			"count":215,
			"max":[
				0.02745230495929718,
				0.36427244544029236,
				0.32746368646621704
			],
			"min":[
				-0.02745230495929718,
				2.684491846594028e-07,
				-0.32746368646621704
			],
			"type":"VEC3"
		},
		{
			"bufferView":21,
			"componentType":5126,
			"count":215,
			"type":"VEC3"
		},
		{
			"bufferView":22,
			"componentType":5126,
			"count":215,
			"type":"VEC2"
		},
		{
			"bufferView":23,
			"componentType":5123,
			"count":1080,
			"type":"SCALAR"
		},
		{
			"bufferView":24,
			"componentType":5126,
			"count":108,
			"max":[
				0.03794983774423599,
				0.43488016724586487,
				0.07298974692821503
			],
			"min":[
				-0.03794984892010689,
				0.3617066740989685,
				-0.07298974692821503
			],
			"type":"VEC3"
		},
		{
			"bufferView":25,
			"componentType":5126,
			"count":108,
			"type":"VEC3"
		},
		{
			"bufferView":26,
			"componentType":5126,
			"count":108,
			"type":"VEC2"
		},
		{
			"bufferView":27,
			"componentType":5123,
			"count":348,
			"type":"SCALAR"
		}
	],
	"bufferViews":[
		{
			"buffer":0,
			"byteLength":4824,
			"byteOffset":0,
			"target":34962
		},
		{
			"buffer":0,
			"byteLength":4824,
			"byteOffset":4824,
			"target":34962
		},
		{
			"buffer":0,
			"byteLength":3216,
			"byteOffset":9648,
			"target":34962
		},
		{
			"buffer":0,
			"byteLength":3120,
			"byteOffset":12864,
			"target":34963
		},
		{
			"buffer":0,
			"byteLength":960,
			"byteOffset":15984,
			"target":34962
		},
		{
			"buffer":0,
			"byteLength":960,
			"byteOffset":16944,
			"target":34962
		},
		{
			"buffer":0,
			"byteLength":640,
			"byteOffset":17904,
			"target":34962
		},
		{
			"buffer":0,
			"byteLength":240,
			"byteOffset":18544,
			"target":34963
		},
		{
			"buffer":0,
			"byteLength":3216,
			"byteOffset":18784,
			"target":34962
		},
		{
			"buffer":0,
			"byteLength":3216,
			"byteOffset":22000,
			"target":34962
		},
		{
			"buffer":0,
			"byteLength":2144,
			"byteOffset":25216,
			"target":34962
		},
		{
			"buffer":0,
			"byteLength":2064,
			"byteOffset":27360,
			"target":34963
		},
		{
			"buffer":0,
			"byteLength":2616,
			"byteOffset":29424,
			"target":34962
		},
		{
			"buffer":0,
			"byteLength":2616,
			"byteOffset":32040,
			"target":34962
		},
		{
			"buffer":0,
			"byteLength":1744,
			"byteOffset":34656,
			"target":34962
		},
		{
			"buffer":0,
			"byteLength":1920,
			"byteOffset":36400,
			"target":34963
		},
		{
			"buffer":0,
			"byteLength":6024,
			"byteOffset":38320,
			"target":34962
		},
		{
			"buffer":0,
			"byteLength":6024,
			"byteOffset":44344,
			"target":34962
		},
		{
			"buffer":0,
			"byteLength":4016,
			"byteOffset":50368,
			"target":34962
		},
		{
			"buffer":0,
			"byteLength":4032,
			"byteOffset":54384,
			"target":34963
		},
		{
			"buffer":0,
			"byteLength":2580,
			"byteOffset":58416,
			"target":34962
		},
		{
			"buffer":0,
			"byteLength":2580,
			"byteOffset":60996,
			"target":34962
		},
		{
			"buffer":0,
			"byteLength":1720,
			"byteOffset":63576,
			"target":34962
		},
		{
			"buffer":0,
			"byteLength":2160,
			"byteOffset":65296,
			"target":34963
		},
		{
			"buffer":0,
			"byteLength":1296,
			"byteOffset":67456,
			"target":34962
		},
		{
			"buffer":0,
			"byteLength":1296,
			"byteOffset":68752,
			"target":34962
		},
		{
			"buffer":0,
			"byteLength":864,
			"byteOffset":70048,
			"target":34962
		},
		{
			"buffer":0,
			"byteLength":696,
			"byteOffset":70912,
			"target":34963
		}
	],
	"samplers":[
		{
			"magFilter":9729,
			"minFilter":9987
		}
	],
	"buffers":[
		{
			"byteLength":71608,
			"uri":"swing_balancer.bin"
		}
	]
}
